<?xml version="1.0" encoding="UTF-8" standalone="no"?>
<!-- Created with Inkscape (http://www.inkscape.org/) -->

<svg
   width="1738.577mm"
   height="1340.2773mm"
   viewBox="0 0 1738.577 1340.2773"
   version="1.1"
   id="svg5"
   xml:space="preserve"
   xmlns:inkscape="http://www.inkscape.org/namespaces/inkscape"
   xmlns:sodipodi="http://sodipodi.sourceforge.net/DTD/sodipodi-0.dtd"
   xmlns="http://www.w3.org/2000/svg"
   xmlns:svg="http://www.w3.org/2000/svg"><sodipodi:namedview
     id="namedview7"
     pagecolor="#505050"
     bordercolor="#ffffff"
     borderopacity="1"
     inkscape:showpageshadow="0"
     inkscape:pageopacity="0"
     inkscape:pagecheckerboard="1"
     inkscape:deskcolor="#505050"
     inkscape:document-units="mm"
     showgrid="false" /><defs
     id="defs2" /><g
     inkscape:label="Layer 1"
     inkscape:groupmode="layer"
     id="layer1"
     transform="translate(865.22463,395.92351)"><path
       style="fill:#000000;stroke-width:0.264583"
       d="m 412.18364,944.11817 c -5.63814,-0.5515 -8.06185,-1.28239 -9.78125,-2.94963 -2.30891,-2.23888 -2.18247,-0.68911 -2.32465,-28.49282 -0.0926,-18.117 -0.0441,-24.79276 0.18999,-26.10565 0.66334,-3.72102 2.65152,-5.29873 7.99195,-6.34188 0.77574,-0.1515 6.02409,-0.33607 11.66302,-0.4101 l 10.25261,-0.13465 v 4.09686 4.09687 l -2.73117,0.10109 c -2.02856,0.0751 -2.9134,0.22051 -3.43958,0.56526 l -0.70842,0.46418 v 22.83937 c 0,21.48856 0.0276,22.86434 0.46694,23.2619 0.63902,0.5783 2.48711,0.96816 4.62629,0.97592 l 1.78594,0.006 0.003,1.91823 c 0,1.05502 0.0781,2.90049 0.1715,4.10104 l 0.16992,2.18281 -8.70431,-0.0423 c -4.78738,-0.0233 -9.12104,-0.0831 -9.63036,-0.13293 z m 347.66249,-3.86025 v -4.09583 l 2.66216,-0.12819 c 2.11762,-0.10197 2.80765,-0.2368 3.37344,-0.65921 l 0.71127,-0.53099 0.0623,-15.44963 c 0.0343,-8.49728 -0.0251,-18.84148 -0.13229,-22.98713 l -0.19463,-7.53756 -0.79375,-0.38727 c -0.46424,-0.22654 -1.86465,-0.43281 -3.37344,-0.49689 l -2.57968,-0.10959 v -4.09805 -4.09808 l 10.2526,0.13544 c 5.63893,0.0745 10.84792,0.26181 11.57552,0.41627 4.88717,1.03748 6.86811,2.37162 7.86003,5.2936 0.45096,1.32847 0.65051,50.58122 0.2131,52.5975 -0.43842,2.02084 -1.51649,3.3365 -3.51581,4.2907 -2.96019,1.41277 -5.04847,1.64589 -16.13284,1.80096 l -9.98802,0.13978 z M 5.2113814,932.63059 c -8.666506,-0.49699 -12.356729,-1.98575 -13.579448,-5.47843 -0.594863,-1.69924 -0.64053,-3.28457 -0.773271,-26.84572 l -0.115888,-20.57135 H 2.3219994 13.901224 l 0.173937,6.15156 c 0.09567,3.38336 0.174202,13.06047 0.174545,21.50468 0,17.18378 -0.10369,16.26695 1.913838,16.81022 1.375568,0.37042 3.702446,0.10218 4.464129,-0.51456 l 0.57023,-0.46175 -0.04985,-21.74508 -0.04982,-21.74507 H 32.75551 44.412817 l 0.0661,18.45469 c 0.0918,25.62479 0.0746,26.69678 -0.4595,28.54592 -0.86497,2.99469 -3.33026,4.60807 -8.239707,5.39234 -4.503869,0.71951 -21.821033,1.0042 -30.5683696,0.50255 z m 67.4526056,0 c -6.90012,-0.39536 -11.05791,-1.65833 -12.71079,-3.86098 -1.36351,-1.81703 -1.56475,-3.04694 -1.71315,-10.47076 l -0.13621,-6.81302 h 11.65648 11.65651 l 0.085,5.66134 c 0.077,5.13038 0.13231,5.71366 0.58999,6.21885 1.09982,1.21399 4.68559,1.36345 6.0959,0.25411 l 0.67511,-0.53105 -0.004,-5.07402 c -0.005,-5.71103 -0.0954,-6.07901 -1.72313,-6.96981 -0.57811,-0.31639 -4.50392,-1.48654 -8.72402,-2.60033 -14.24903,-3.76073 -15.7058,-4.29477 -18.00368,-6.60006 -2.09754,-2.10433 -2.31717,-3.11882 -2.16699,-10.00947 0.14091,-6.46478 0.30202,-7.17053 2.04462,-8.95602 1.38705,-1.42121 3.10446,-2.14447 6.56233,-2.76362 4.95244,-0.88676 29.42743,-0.96685 34.979343,-0.11446 5.47349,0.84037 7.79912,1.95797 9.08251,4.36475 0.52123,0.97748 0.57166,1.53845 0.66011,7.34219 l 0.0958,6.28385 H 100.13195 88.598177 v -4.37766 c 0,-4.25498 -0.0175,-4.39523 -0.62822,-5.00589 -1.19716,-1.19714 -4.69562,-1.19166 -5.89653,0.009 -0.58733,0.58732 -0.61878,0.79899 -0.61511,4.13673 0.005,4.04024 0.17428,4.56377 1.76475,5.44111 0.60097,0.33152 5.1948,1.66494 10.20849,2.96312 12.437113,3.22032 14.222263,3.88858 16.389353,6.13505 1.64246,1.70267 1.79623,2.67245 1.79454,11.31766 0,4.55387 -0.11406,7.9642 -0.28466,8.57864 -0.37865,1.36363 -2.0831,3.16198 -3.62255,3.82209 -1.96662,0.84328 -4.97316,1.35414 -9.640303,1.63801 -4.93834,0.30035 -20.02319,0.28871 -25.404,-0.0196 z m 451.021553,0.0276 c -7.15143,-0.4449 -10.10992,-1.24847 -12.1579,-3.30222 -0.73885,-0.74091 -1.49045,-1.80411 -1.69106,-2.39204 -0.28038,-0.8218 -0.41283,-4.9317 -0.59261,-18.38854 -0.12734,-9.53162 -0.16261,-18.43498 -0.0784,-19.78523 0.20886,-3.34764 0.67961,-4.78909 1.993,-6.10248 2.22618,-2.22618 5.89418,-2.92135 16.91254,-3.2053 9.58725,-0.24707 22.47926,0.0704 25.85079,0.63654 5.63404,0.94607 7.78045,2.61342 8.52096,6.61918 0.39905,2.15871 0.39881,37.70184 0,39.56273 -0.75652,3.52753 -3.83479,5.30394 -10.55896,6.09338 -3.11473,0.36565 -23.49659,0.55647 -28.1981,0.26398 z m 15.03508,-8.9125 0.7276,-0.36724 -0.004,-16.72809 c -0.003,-9.20047 -0.0767,-17.00075 -0.16592,-17.334 -0.25268,-0.94332 -1.40994,-1.37848 -3.66581,-1.37848 -1.81335,0 -2.07695,0.0674 -2.70012,0.69059 l -0.69062,0.69062 0.17346,5.56977 c 0.0954,3.06337 0.17346,10.59754 0.17346,16.7426 0,10.45472 0.0313,11.21145 0.48684,11.77401 0.80772,0.9975 3.98436,1.18829 5.66473,0.34022 z m 52.26211,8.88487 c -10.00768,-0.57343 -13.44547,-2.462 -14.21866,-7.81111 -0.14504,-1.00335 -0.26606,-4.41388 -0.26895,-7.57896 l -0.005,-5.75543 h 11.62708 11.62709 l 0.0807,5.6614 c 0.0732,5.13395 0.12776,5.71333 0.58576,6.21882 1.09984,1.21396 4.68561,1.36342 6.09589,0.25408 l 0.67511,-0.53105 -0.004,-5.07402 c -0.005,-5.71204 -0.0959,-6.0819 -1.72312,-6.96508 -0.57812,-0.31377 -5.39367,-1.72429 -10.70121,-3.13449 -5.30757,-1.4102 -10.42416,-2.85536 -11.3702,-3.21146 -3.54071,-1.33271 -5.80337,-3.36293 -6.5287,-5.85801 -0.59677,-2.05279 -0.40182,-12.06783 0.26995,-13.86895 0.94102,-2.52304 3.44858,-4.03876 8.04241,-4.86133 5.3172,-0.95207 30.00494,-0.94501 35.72507,0.0103 4.66416,0.77888 7.15053,2.02912 8.17285,4.10956 0.53303,1.08469 0.60029,1.73946 0.76769,7.47271 l 0.18346,6.28386 h -11.54943 -11.54946 v -4.37767 c 0,-4.2505 -0.0183,-4.39581 -0.62595,-5.00359 -1.24394,-1.24393 -5.19356,-1.12289 -6.11124,0.1873 -0.31766,0.45352 -0.40656,1.37306 -0.40656,4.20545 0,5.39221 -0.72313,4.91905 12.83229,8.39645 4.51115,1.15723 9.21411,2.47298 10.45104,2.92383 2.64758,0.96504 4.70562,2.30402 5.66158,3.68347 1.08342,1.5634 1.26153,3.33627 1.16943,11.63916 -0.0725,6.53023 -0.1465,7.69591 -0.53363,8.40269 -0.51983,0.94898 -1.97782,2.29166 -3.14246,2.89393 -1.44605,0.74777 -5.42851,1.43971 -9.8257,1.70715 -4.93755,0.3003 -20.02269,0.28863 -25.40304,-0.0196 z m 67.20416,0 c -8.02473,-0.45982 -11.82034,-1.81623 -13.31034,-4.75662 -0.93906,-1.85315 -1.17829,-3.98124 -1.18049,-10.50116 l -0.002,-5.88772 h 11.62709 11.62709 l 0.0807,5.6614 c 0.0732,5.13395 0.12777,5.71333 0.58576,6.21882 1.09985,1.21396 4.68561,1.36342 6.09589,0.25408 l 0.67512,-0.53105 -0.004,-5.07402 c -0.005,-5.71204 -0.0959,-6.0819 -1.72313,-6.96508 -0.57811,-0.31377 -5.39366,-1.72429 -10.7012,-3.13449 -5.30757,-1.4102 -10.42416,-2.85536 -11.37021,-3.21146 -3.54676,-1.33498 -5.80316,-3.36222 -6.53171,-5.86833 -0.3333,-1.14651 -0.39373,-2.52187 -0.31422,-7.15084 0.0888,-5.16665 0.15372,-5.84864 0.65918,-6.92195 1.29619,-2.75227 3.32774,-3.87051 8.68622,-4.78123 4.85891,-0.82582 29.816,-0.72297 35.00927,0.14428 4.67659,0.78094 7.16388,2.0339 8.15811,4.10956 0.51564,1.07654 0.58491,1.78244 0.73334,7.47271 l 0.16389,6.28385 h -11.51512 -11.51512 v -4.37766 c 0,-4.25051 -0.0182,-4.39582 -0.62595,-5.00359 -1.24394,-1.24394 -5.19356,-1.12289 -6.11124,0.1873 -0.31766,0.45352 -0.40656,1.37305 -0.40656,4.20544 0,5.43333 -0.84825,4.87842 12.83229,8.3947 12.31358,3.16498 14.6875,4.20638 16.37652,7.18418 l 0.8214,1.44817 0.0868,7.86493 c 0.10179,9.22284 -0.0319,10.07943 -1.8257,11.70006 -2.06507,1.86566 -5.05516,2.65118 -11.6323,3.05591 -4.76753,0.29337 -20.18556,0.2807 -25.44948,-0.0209 z M -834.79757,906.06113 v -26.32604 h 340.38644 340.38645 v 26.32604 26.32605 h -340.38645 -340.38644 z m 705.81972,6.68073 c -0.0966,-10.80492 -0.17571,-22.65164 -0.17581,-26.32604 l -1.9e-4,-6.68073 10.91407,0.007 10.91406,0.007 5.82083,13.55259 5.820833,13.55259 0.06855,-13.55989 0.06855,-13.5599 h 10.051759 10.051759 v 25.49922 c 0,14.02459 0.07443,25.87128 0.165364,26.32604 l 0.165365,0.82683 h -10.972191 -10.972218 l -5.776861,-12.7136 c -3.1773,-6.99246 -5.87467,-12.77403 -5.99421,-12.84791 -0.11954,-0.0739 -0.21733,5.64724 -0.21733,12.7136 v 12.84791 h -9.87838 -9.87835 l -0.1756,-19.64532 z m 68.87988,3.83646 c -1.85e-4,-8.69487 -0.07908,-20.54159 -0.175286,-26.32604 l -0.174942,-10.51719 h 18.696145 18.696119 v 4.10104 4.10104 h -7.011458 -7.011458 v 5.68855 5.68854 h 7.011458 7.011458 v 4.23333 4.23333 h -7.015294 -7.015269 l 0.06996,8.13594 0.06998,8.13594 6.945312,0.0705 6.945312,0.0705 v 4.09665 4.09665 h -18.520834 -18.520832 v -15.80886 z m 195.19823,-6.21771 -0.0677,-22.02656 -6.01927,-0.0711 -6.01928,-0.0711 v -4.22838 -4.22836 h 23.54792 23.54792 l 0.003,2.4474 c 0,1.34606 0.0778,3.25106 0.17055,4.23333 l 0.16868,1.78594 h -6.16628 -6.16627 l 0.15994,22.09271 0.15991,22.09271 h -11.62549 -11.62518 l -0.0677,-22.02657 z m 40.56033,21.96042 c 0.008,-0.0364 3.13915,-11.85333 6.9582,-26.2599 l 6.9437,-26.19375 14.20849,-0.0684 c 7.81468,-0.0376 14.2085,-0.009 14.2085,0.0645 0,0.0731 3.21469,11.86649 7.14375,26.20749 3.92906,14.341 7.14375,26.12892 7.14375,26.19541 0,0.0665 -4.92003,0.12087 -10.9334,0.12087 h -10.93341 l -0.88064,-5.15938 -0.88061,-5.15937 h -4.81468 -4.81467 l -0.59751,3.63802 c -0.32861,2.00091 -0.71654,4.32263 -0.86207,5.15937 l -0.26455,1.52136 h -10.81963 c -5.95083,0 -10.81315,-0.0298 -10.80522,-0.0661 z m 31.73556,-19.10641 c 0,-0.6227 -3.42027,-19.79007 -3.55553,-19.92532 -0.0676,-0.0676 -0.18624,0.15904 -0.26368,0.50363 -0.16513,0.73467 -3.32454,19.40439 -3.32454,19.64534 0,0.0899 1.60734,0.16349 3.57187,0.16349 2.9587,0 3.57188,-0.0665 3.57188,-0.38714 z m 37.21687,15.41936 c -0.0953,-2.08309 -0.1737,-13.93751 -0.17423,-26.34316 v -22.55573 h 18.747 c 23.30325,0 27.07889,0.25982 30.90783,2.12693 1.78057,0.86826 2.97857,2.31405 3.59595,4.3397 0.5148,1.68905 0.4671,38.42766 -0.0522,40.2177 -0.51948,1.79067 -2.31405,3.60455 -4.28329,4.32932 -3.69776,1.36097 -5.42792,1.45873 -27.77283,1.56954 l -20.794,0.10311 -0.17325,-3.78741 z m 28.7274,-4.72652 c 0.54401,-0.15107 1.10955,-0.49977 1.25677,-0.77488 0.2962,-0.55343 0.38899,-31.87698 0.0988,-33.32816 -0.26927,-1.34623 -1.11546,-1.71038 -4.24365,-1.82616 l -2.73117,-0.10109 v 17.73544 c 0,9.7545 0.0723,17.92378 0.16061,18.15396 0.12832,0.33441 0.59362,0.41823 2.3151,0.41704 1.18496,0 2.59958,-0.12507 3.14357,-0.27615 z m 48.26658,-3.86685 c -0.0965,-6.79064 -0.17544,-16.73236 -0.17544,-22.09271 v -9.74614 h -5.95313 -5.95312 v -4.23334 -4.23333 h 23.54792 23.54791 v 4.23333 4.23334 h -5.95312 -5.95313 v 22.09271 22.09271 h -11.46622 -11.46619 z m 120.20971,0.50646 c -1.3e-4,-6.51206 -0.0793,-18.36759 -0.17584,-26.34565 l -0.17556,-14.50552 21.14405,0.11875 c 22.6505,0.12718 23.89084,0.196 27.50984,1.52622 2.94034,1.08075 4.32006,2.68597 4.85862,5.65272 0.30761,1.69455 0.41164,36.7868 0.11438,38.58535 -0.0906,0.54835 -0.53628,1.61867 -0.99033,2.37853 -0.68128,1.14009 -1.12594,1.53228 -2.54429,2.24414 -3.84059,1.9276 -7.49906,2.18557 -30.99361,2.18557 h -18.747 v -11.84011 z m 29.45434,3.03168 0.70842,-0.46419 V 906.3785 c 0,-18.60907 0.0957,-17.64025 -1.79374,-18.165 -0.54142,-0.15036 -1.98565,-0.27405 -3.2094,-0.27485 l -2.22501,-0.003 0.17449,5.99588 c 0.096,3.29774 0.1745,11.46702 0.1745,18.15396 v 12.15809 l 2.73116,-0.1011 c 2.02856,-0.0751 2.9134,-0.22051 3.43958,-0.56526 z m 240.42091,-17.51762 v -26.32604 h 18.52084 18.52083 v 4.09665 4.09665 l -6.94531,0.0705 -6.94531,0.0705 -0.0825,3.70417 c -0.0454,2.03729 -0.006,4.56737 0.0887,5.6224 l 0.17122,1.91823 h 6.85659 6.8566 v 4.23333 4.23333 h -6.87917 -6.87916 v 8.20209 8.20208 h 7.01146 7.01145 v 4.10104 4.10105 H 730.34509 711.69196 Z M 278.03989,835.82714 v -7.13084 l 14.08907,-0.0791 c 15.3185,-0.0859 15.18541,-0.0728 15.96099,-1.5726 0.27024,-0.52258 0.37703,-1.71448 0.37703,-4.2078 v -3.47872 l -0.8599,0.56571 c -4.54223,2.98817 -9.94463,4.27259 -15.69143,3.73068 -5.35887,-0.50539 -8.04119,-1.54996 -10.64556,-4.14573 -2.03304,-2.02632 -3.21398,-4.41799 -4.0403,-8.18246 -0.56073,-2.55447 -0.58409,-3.35142 -0.79481,-27.10582 -0.22976,-25.90345 -0.11382,-30.66166 0.8358,-34.3026 1.54307,-5.91645 4.98287,-9.43284 10.58203,-10.81775 0.93306,-0.2308 3.30896,-0.48781 5.27982,-0.57113 5.30672,-0.22439 8.95482,0.63648 13.26385,3.12999 0.97126,0.56206 1.83446,1.0219 1.91823,1.0219 0.0837,0 0.15227,-0.83343 0.15227,-1.85208 v -1.85208 h 12.17083 12.17083 v 46.15677 c 0,32.67502 -0.0854,46.5663 -0.29239,47.55886 -1.25883,6.03655 -5.80715,9.06254 -15.01534,9.98972 -1.6138,0.1625 -10.2865,0.2759 -21.10052,0.2759 h -18.3605 z m 28.575,-28.25758 c 0.52753,-0.26353 1.12639,-0.86112 1.39161,-1.38864 0.43576,-0.86678 0.46116,-2.47536 0.39687,-25.13542 -0.0631,-22.24106 -0.10538,-24.2764 -0.52004,-25.03361 -1.26222,-2.30486 -5.55752,-2.26385 -6.71295,0.0641 -0.49258,0.99245 -0.5057,1.779 -0.41617,24.96952 0.0874,22.63489 0.11936,24.00673 0.58399,25.07729 0.34415,0.79296 0.75271,1.24595 1.36276,1.51098 1.19113,0.5175 2.80239,0.49107 3.91393,-0.0642 z m 110.06667,16.44031 c -11.9588,-0.76711 -16.96548,-2.80416 -19.33446,-7.86654 -1.72283,-3.6816 -2.08264,-7.6386 -2.09079,-22.99314 l -0.006,-11.31094 h 14.14206 14.14203 l 0.0793,11.31094 c 0.0881,12.55948 0.0759,12.47177 1.87806,13.57061 1.2083,0.73673 3.86655,0.71408 5.21616,-0.0444 1.74818,-0.98253 1.72127,-0.78631 1.67103,-12.18798 -0.0441,-10.00678 -0.0608,-10.31121 -0.62818,-11.48331 -0.40465,-0.83593 -0.9975,-1.47648 -1.93907,-2.09519 -0.74592,-0.49014 -6.11871,-2.93573 -11.93954,-5.43467 -5.82083,-2.49896 -11.29771,-4.9036 -12.17083,-5.34366 -5.31768,-2.6802 -8.41087,-6.31579 -9.84864,-11.57562 -0.41799,-1.52908 -0.47011,-3.04009 -0.47011,-13.62605 0,-10.5283 0.0559,-12.16652 0.48292,-14.15521 1.49796,-6.97611 5.01107,-9.66769 14.37939,-11.01672 3.92787,-0.5656 24.45795,-0.8169 30.24475,-0.37023 12.17028,0.93946 17.04475,3.54126 18.98174,10.13174 0.33285,1.1325 0.4304,3.66086 0.53081,13.75678 l 0.123,12.36927 h -13.8762 -13.87621 l -0.14774,-8.46003 c -0.13092,-7.49594 -0.20336,-8.57385 -0.63574,-9.45885 -0.64625,-1.32279 -1.88156,-1.92395 -3.95457,-1.92445 -1.96445,0 -3.24821,0.73131 -3.72838,2.1254 -0.40724,1.18245 -0.46156,14.24718 -0.0652,15.67463 0.39875,1.43584 1.57059,2.63335 3.61958,3.69888 0.98366,0.51151 5.89613,2.62524 10.9166,4.69717 5.02047,2.0719 10.08062,4.24236 11.24479,4.82325 5.47804,2.73338 8.40624,5.91582 9.81644,10.66879 0.41685,1.40494 0.47657,3.23961 0.56547,17.3735 0.10927,17.36738 0.0148,18.83643 -1.39878,21.72309 -0.91593,1.87057 -3.32295,4.21071 -5.2283,5.08299 -1.86264,0.85275 -4.8279,1.59874 -7.89551,1.98633 -2.31954,0.29308 -25.33798,0.57576 -28.79994,0.35367 z m -791.10415,-0.38251 c -3.67061,-0.31417 -7.67297,-1.18166 -9.707,-2.10391 -3.32965,-1.50974 -5.45738,-4.36489 -6.30709,-8.46336 -0.84016,-4.05234 -0.94954,-8.62796 -0.84762,-35.45417 0.0909,-23.93181 0.14611,-26.77581 0.55192,-28.44271 2.12397,-8.7243 7.27208,-10.71997 27.63515,-10.7129 8.78464,0.003 12.95604,0.27148 16.84875,1.08426 4.99136,1.04214 7.6514,2.81019 9.24784,6.14672 1.77787,3.71568 1.75676,3.39135 2.05346,31.52775 0.3352,31.7857 0.15502,35.52907 -1.91259,39.73973 -1.76221,3.58865 -5.38695,5.48855 -12.29511,6.44443 -2.69706,0.3732 -21.59696,0.54835 -25.26771,0.23416 z m 13.44136,-14.37664 c 0.39331,-0.20339 0.95295,-0.63325 1.24365,-0.95525 0.52197,-0.5782 0.52753,-0.90961 0.44773,-26.66127 -0.0872,-28.15844 -0.0421,-27.30236 -1.48841,-28.25002 -1.7195,-1.12665 -5.05463,-0.57864 -5.85103,0.96142 -0.34716,0.67135 -0.38832,4.05982 -0.32509,26.76501 0.0683,24.53368 0.0994,26.04585 0.55256,26.87622 0.26408,0.48392 0.85939,1.04481 1.32291,1.2464 1.09694,0.4771 3.19162,0.48601 4.09768,0.0175 z m 261.196132,14.37307 c -10.791242,-0.93747 -14.638842,-3.52862 -16.275472,-10.96058 -0.55568,-2.52333 -0.8636,-16.62509 -0.89257,-40.87813 -0.0233,-19.39475 0.24455,-22.77451 2.09661,-26.46802 1.74204,-3.47408 4.95601,-5.19573 11.69474,-6.26456 2.52352,-0.40024 4.721966,-0.47263 14.3569,-0.47263 11.841744,0 14.040087,0.14576 18.213016,1.20767 5.383319,1.36993 8.19322,4.2291 9.29267,9.45576 0.854022,4.05987 0.975651,9.0371 0.867648,35.50637 -0.114485,28.05398 -0.08729,27.49164 -1.513258,31.2861 -1.085982,2.88978 -4.049395,5.34874 -7.677785,6.37077 -3.722397,1.04852 -6.750315,1.29075 -17.197916,1.37573 -5.602552,0.0456 -11.436615,-0.0257 -12.964583,-0.15848 z m 13.352382,-14.37931 c 1.84748,-0.77195 1.749478,0.86439 1.669018,-27.86727 -0.06797,-24.26571 -0.101785,-25.92295 -0.547422,-26.81788 -0.26125,-0.52464 -0.785945,-1.11995 -1.165966,-1.32292 -1.013249,-0.54115 -3.783251,-0.47082 -4.683284,0.11891 -1.516353,0.99356 -1.483598,0.48977 -1.451557,22.32387 0.01614,11.02786 0.105463,22.69141 0.198438,25.91899 0.155442,5.39668 0.213598,5.92825 0.723688,6.61458 0.305064,0.41045 0.840846,0.89337 1.190625,1.07312 0.858361,0.44112 2.96291,0.41969 4.06646,-0.0414 z m 183.778233,14.39177 c -3.18654,-0.44196 -7.55023,-2.09103 -9.83129,-3.71528 -0.39462,-0.28099 -0.7884,-0.51088 -0.87508,-0.51088 -0.0867,0 -0.15758,0.89296 -0.15758,1.98437 v 1.98438 h -12.17084 -12.17083 l -1.6e-4,-25.86303 c -8e-5,-14.22466 -0.0792,-37.56091 -0.17592,-51.85833 l -0.17582,-25.99532 h 12.21449 12.21449 v 11.50938 c 0,6.33016 0.0893,11.50906 0.19844,11.50869 0.10914,0 0.85328,-0.39127 1.65365,-0.86866 1.94982,-1.16297 4.26151,-2.16283 6.35,-2.74648 2.40649,-0.67252 9.935763,-0.68196 12.435413,-0.0156 6.01975,1.60473 9.45491,5.39684 10.94558,12.08283 0.55589,2.49339 0.5638,2.92201 0.5638,30.57467 0,26.15947 -0.0322,28.17932 -0.479,30.03021 -1.50972,6.25444 -5.36493,10.12151 -11.42725,11.46236 -2.36588,0.5233 -6.915713,0.74134 -9.112093,0.43673 z m -4.77854,-16.20615 c 0.3638,-0.18177 0.86963,-0.74557 1.12406,-1.25286 0.43034,-0.85804 0.46225,-2.59239 0.45722,-24.86716 -0.005,-23.15207 -0.0225,-23.98233 -0.52027,-25.07922 -0.3705,-0.81629 -0.7746,-1.24296 -1.4409,-1.52135 -1.21057,-0.50581 -3.14547,-0.493 -4.152,0.0275 -1.64182,0.84903 -1.58615,-0.0852 -1.56191,26.21585 0.0241,26.20949 -0.0143,25.56007 1.56181,26.41642 0.86206,0.46842 3.64159,0.50573 4.53199,0.0608 z m 56.488543,16.31391 c -7.03027,-1.05415 -10.77629,-3.88731 -12.71444,-9.61599 -1.53342,-4.53236 -1.52265,-4.26116 -1.63648,-41.21846 l -0.10451,-33.93281 h 12.32096 12.32093 l 0.003,32.87448 c 0,21.60725 0.0943,33.2087 0.27231,33.84965 0.14898,0.53637 0.6337,1.28051 1.07717,1.65365 0.66849,0.5625 1.0764,0.67847 2.38664,0.67847 1.978,0 3.04888,-0.53274 3.6254,-1.8035 0.40738,-0.89797 0.43419,-3.58085 0.3406,-34.11369 l -0.10154,-33.13906 h 12.20626 12.20626 v 20.72605 c 0,11.39934 0.0791,30.38981 0.17584,42.20105 l 0.17587,21.47499 h -12.21441 -12.21439 v -1.85209 c 0,-2.00967 -0.14266,-2.16059 -1.28206,-1.35644 -1.36731,0.96499 -4.01463,2.15416 -6.31238,2.83552 -1.92045,0.56946 -2.97516,0.70477 -6.0316,0.77369 -2.03729,0.0459 -4.06135,0.03 -4.49791,-0.0355 z m 344.09062,-0.12022 c -10.74015,-0.93306 -14.7243,-3.58548 -16.265,-10.82829 -0.72347,-3.40116 -0.97369,-14.62413 -0.85534,-38.36458 0.0964,-19.33131 0.17007,-22.65072 0.5443,-24.52532 0.65852,-3.29856 1.37067,-4.92956 2.86755,-6.56738 3.5955,-3.93406 9.98419,-5.06066 27.32117,-4.81785 13.99886,0.19605 18.04072,1.01076 21.61884,4.35766 3.3048,3.09126 4.17925,7.89837 4.18748,23.02007 l 0.004,7.2099 H 520.3983 508.22747 v -7.90139 c 0,-8.82837 -0.17357,-10.38497 -1.28164,-11.49363 -1.47712,-1.47791 -4.92858,-1.1866 -6.03996,0.5098 -0.46003,0.70218 -0.48361,1.99022 -0.48361,26.41431 0,27.52881 -0.0289,26.91969 1.33914,28.2049 1.00896,0.94787 3.61529,1.05394 4.87471,0.19844 1.59472,-1.08326 1.58318,-0.99769 1.58747,-11.79187 l 0.004,-9.8584 12.10469,0.0688 12.10468,0.0688 -0.0106,11.24479 c -0.009,9.59583 -0.078,11.58394 -0.47109,13.55744 -0.66334,3.33044 -1.41729,5.09177 -2.8512,6.6607 -2.08047,2.27637 -4.87233,3.4661 -10.02869,4.2736 -3.27263,0.51253 -21.29192,0.76232 -25.92917,0.35947 z m 143.80104,0.10599 c -1.99975,-0.24921 -4.65463,-1.03428 -6.33532,-1.87336 -4.31845,-2.15598 -6.64779,-6.30941 -7.52994,-13.42654 -0.1938,-1.5638 -0.35462,-13.89394 -0.46841,-35.91719 l -0.17328,-33.53594 h 12.3467 12.3467 v 32.53073 c 0,21.85694 0.0918,32.95857 0.27967,33.83471 0.40322,1.88015 1.17853,2.50835 3.25937,2.64086 1.99864,0.12726 3.10656,-0.34179 3.79868,-1.60817 0.44101,-0.80698 0.46344,-2.73962 0.39613,-34.12678 l -0.0714,-33.27135 h 12.13244 12.13247 l 0.17574,23.61406 c 0.0967,12.98774 0.17578,31.97821 0.17589,42.20105 l 1.6e-4,18.58698 h -12.17083 -12.17084 v -2.01036 -2.01036 l -0.85989,0.56592 c -2.5958,1.70836 -6.25446,3.16487 -9.30902,3.70589 -1.47283,0.26087 -6.18818,0.32006 -7.95504,0.0998 z m 117.60728,-0.10599 c -8.98882,-0.78089 -12.99141,-2.69949 -15.11218,-7.24387 -1.89928,-4.06974 -2.15352,-9.20822 -2.0167,-40.75838 0.10027,-23.12485 0.11948,-23.88423 0.66542,-26.29646 0.72647,-3.21003 1.6002,-4.95776 3.24993,-6.50092 3.75367,-3.5111 10.15032,-4.53734 26.82621,-4.30379 13.99887,0.19605 18.04072,1.01076 21.61884,4.35766 3.56701,3.33653 4.18092,7.58399 4.18767,28.9732 l 0.004,11.8401 h -16.16122 -16.16126 l 0.0878,11.57552 0.0878,11.57553 0.6378,1.11342 c 0.72147,1.25941 1.5647,1.6647 3.46358,1.6647 1.40552,0 2.81964,-0.78158 3.36535,-1.86002 0.24055,-0.47543 0.33173,-2.65422 0.33459,-7.99571 l 0.004,-7.34219 h 12.20468 12.20464 l -0.14311,9.06198 c -0.12107,7.66686 -0.22355,9.432 -0.66564,11.46551 -1.41277,6.49833 -4.53506,9.02338 -12.75265,10.31325 -3.27147,0.51353 -21.28491,0.76393 -25.92917,0.36047 z m 15.08125,-60.26926 c 0,-7.06136 -0.20685,-8.56618 -1.33223,-9.69214 -0.7266,-0.72699 -0.9431,-0.79258 -2.61998,-0.79375 -1.44306,0 -1.98543,0.11552 -2.57588,0.55341 -1.35644,1.00592 -1.40131,1.29013 -1.40552,8.90418 l -0.004,7.0776 h 3.96875 3.96875 z m -1604.69787,8.16597 v -51.85834 l 19.24844,0.004 c 10.58664,0.003 21.2725,0.11985 23.74635,0.26175 14.18476,0.8137 18.97711,3.2227 21.01085,10.56172 0.96206,3.4717 1.13707,8.07468 1.01177,26.61134 -0.12582,18.61439 -0.15947,19.12274 -1.49766,22.62188 -1.62321,4.24444 -5.26648,6.59751 -12.04754,7.78113 -3.08584,0.53864 -8.68525,0.91302 -16.61335,1.11083 l -6.54844,0.16335 v 17.30047 17.30047 h -14.15521 -14.15521 v -51.85834 z m 35.28965,-0.0867 c 1.52228,-0.99767 1.51474,-0.90485 1.4314,-17.63692 -0.075,-15.06492 -0.0852,-15.32297 -0.6302,-16.05772 -0.78159,-1.05362 -1.95481,-1.37615 -5.06845,-1.39329 l -2.71198,-0.0149 v 17.88724 17.88726 l 3.12067,-0.094 c 2.46489,-0.0742 3.27574,-0.19563 3.85856,-0.57761 z m 46.9071,35.47475 c -0.0965,-9.05867 -0.17556,-28.04914 -0.17568,-42.20104 l -2.4e-4,-25.73073 h 12.17084 12.17083 v 1.85208 c 0,1.01865 0.0685,1.85208 0.15228,1.85208 0.0838,0 0.94695,-0.45984 1.91822,-1.0219 2.28327,-1.32125 4.91948,-2.35659 7.28647,-2.86165 2.37608,-0.50699 7.81567,-0.33388 9.95761,0.31689 5.9319,1.80226 9.07733,6.2311 10.04464,14.14307 0.15076,1.23309 0.27411,6.26348 0.27411,11.17864 v 8.93662 h -10.8309 -10.8309 l -0.0832,-8.26823 c -0.0736,-7.31271 -0.13731,-8.36731 -0.55169,-9.12564 -0.70819,-1.29598 -1.57996,-1.74336 -3.3644,-1.72656 -1.84043,0.0175 -3.00542,0.60833 -3.49805,1.77451 -0.27398,0.64857 -0.33597,7.42243 -0.31191,34.08082 l 0.03,33.27136 h -12.09132 -12.09132 z m 68.61575,-25.73073 v -42.20104 h 11.99771 11.99771 l 0.17205,3.37343 c 0.0946,1.8554 0.17253,20.84587 0.17312,42.20105 l 0.001,38.82761 h -12.17083 -12.17083 z m 41.80416,0 v -42.20104 l 12.10469,0.003 12.10469,0.003 0.0838,1.78009 c 0.0461,0.97906 0.11756,1.8139 0.15887,1.8552 0.0413,0.0413 0.76173,-0.33834 1.60092,-0.84367 2.24422,-1.35139 5.00488,-2.42867 7.53593,-2.94069 2.71428,-0.54909 8.74539,-0.4097 11.25803,0.26017 5.16919,1.37808 8.42952,4.43677 10.19307,9.5626 1.21923,3.54372 1.2746,5.10963 1.44732,40.92506 l 0.16301,33.80052 h -12.14194 -12.14192 l -0.17576,-24.40781 c -0.0967,-13.4243 -0.17583,-28.3047 -0.17592,-33.06758 -1.3e-4,-7.28599 -0.0667,-8.82599 -0.41946,-9.70769 -0.57641,-1.44058 -1.46278,-1.96072 -3.31162,-1.94331 -1.90772,0.018 -2.89392,0.48802 -3.47856,1.65793 -0.43306,0.86662 -0.46263,3.0512 -0.46302,34.19711 l -4.1e-4,33.26887 h -12.17083 -12.17084 z m 71.17292,34.40774 v -7.79333 l 13.87451,-26.80094 c 7.63098,-14.74055 13.95402,-27.00933 14.05123,-27.26399 0.16666,-0.4367 -0.49438,-0.46302 -11.62556,-0.46302 h -11.80227 v -7.14375 -7.14375 h 24.87084 24.87083 v 7.1683 7.16833 l -14.6808,27.82282 -14.68083,27.82284 13.71573,0.0685 13.71574,0.0685 0.16975,2.18046 c 0.0933,1.19927 0.17045,4.4129 0.17132,7.14142 l 0.003,4.96094 h -26.32604 -26.32604 v -7.79331 z m 125.02451,7.46258 c -0.0587,-0.1819 -3.39164,-18.84495 -7.40643,-41.47344 -4.01481,-22.62849 -7.36573,-41.47014 -7.44654,-41.87032 l -0.14692,-0.7276 h 11.99623 11.99624 l 2.60366,29.3026 c 1.432,16.11644 2.64218,29.34328 2.6893,29.39302 0.17344,0.18298 0.43984,-2.74585 2.64351,-29.06229 1.23682,-14.77036 2.32103,-27.48029 2.40934,-28.24427 l 0.16055,-1.38906 h 11.89681 11.89678 l -0.15389,0.7276 c -0.1629,0.77012 -14.70482,83.42766 -14.70482,83.58339 0,0.0501 -6.37358,0.0911 -14.16352,0.0911 -11.09744,0 -14.18664,-0.0716 -14.2703,-0.33073 z m 127.81933,-0.26459 c -0.0878,-0.32742 -0.16116,-19.31789 -0.16314,-42.20104 l -0.004,-41.60573 h 12.17084 12.17083 v 1.85208 c 0,1.01865 0.066,1.85208 0.14679,1.85208 0.0807,0 0.93541,-0.47564 1.89929,-1.05698 1.85991,-1.12178 3.69948,-1.8832 6.2883,-2.60279 2.32941,-0.64748 9.62487,-0.60915 12.17083,0.064 5.28748,1.39798 8.6841,4.55311 10.27972,9.54889 1.30302,4.07961 1.28336,3.52134 1.41703,40.28281 l 0.12531,34.46199 h -12.18705 -12.18703 l -0.074,-33.13907 c -0.0814,-36.45913 0.0124,-34.44785 -1.6578,-35.54222 -0.89112,-0.58391 -3.44467,-0.59306 -4.55989,-0.0164 -1.74958,0.90475 -1.6615,-0.98406 -1.6615,35.63007 v 33.06757 h -12.00769 -12.00767 l -0.15954,-0.59531 z m 119.86556,-23.41565 c -0.0967,-13.20602 -0.17584,-36.54227 -0.17592,-51.85834 l -1.6e-4,-27.8474 h 14.02292 14.02291 v 10.01094 c 0,5.506 0.0788,14.13803 0.17513,19.18229 l 0.17516,9.17136 h 4.19047 4.19049 v -19.18229 -19.1823 h 14.15521 14.15521 l 1.3e-4,20.70365 c 5e-5,11.38701 0.0793,34.72326 0.176,51.85834 l 0.17589,31.15469 h -14.19891 -14.19894 v -20.17448 c 0,-11.09597 -0.0787,-22.04972 -0.17373,-24.34167 l -0.17282,-4.16719 h -4.19193 -4.1919 v 24.34167 24.34167 h -13.97931 -13.97929 l -0.17574,-24.01094 z m 154.605163,2.09423 c 0,-12.05418 -0.07911,-31.04465 -0.175815,-42.20105 l -0.175816,-20.28433 h 12.214357 12.214357 v 2.11666 c 0,1.16417 0.08967,2.11667 0.199284,2.11667 0.109617,0 0.794226,-0.42683 1.521354,-0.9485 1.831261,-1.31382 3.900144,-2.33112 6.226175,-3.06152 1.735852,-0.54507 2.4877984,-0.61892 6.2083954,-0.60963 3.226885,0.008 4.642194,0.12324 5.95312499,0.48456 2.39278601,0.65947 5.64618101,2.2416 7.60859601,3.70009 l 1.655471,1.23034 1.5195286,-1.02857 c 3.174947,-2.1491 7.27874,-3.7252 11.149091,-4.28188 2.971007,-0.42733 8.578374,-0.18225 11.007937,0.48114 5.139504,1.40332 8.437214,4.51755 10.015144,9.45793 1.27571,3.99412 1.26325,3.63948 1.41451,40.28281 l 0.14224,34.46199 H 32.670103 20.600315 l -0.03527,-7.07761 c -0.266594,-53.51246 -0.351896,-59.7389 -0.828305,-60.46563 -0.772107,-1.17774 -1.663435,-1.59948 -3.346979,-1.58364 -1.847612,0.0175 -3.025378,0.57428 -3.65633,1.72874 -0.441483,0.80782 -0.46183,2.70642 -0.365495,34.12678 l 0.101997,33.27136 H 0.40149539 -11.666945 l -0.0721,-33.13907 c -0.07935,-36.47014 0.01508,-34.4473 -1.660525,-35.54524 -0.955331,-0.62597 -3.777059,-0.59269 -4.877752,0.0575 -1.686295,0.9961 -1.603613,-0.83717 -1.603613,35.55923 v 33.06758 h -12.03854 -12.038542 z M 208.8952,794.6054 c -0.0967,-15.8254 -0.17593,-34.81587 -0.17601,-42.20105 l -1.3e-4,-13.4276 h 12.17084 12.17083 v 1.87412 c 0,1.03079 0.0893,1.83446 0.19844,1.78594 0.10914,-0.0485 1.56765,-0.77338 3.24114,-1.61086 4.23013,-2.11691 5.63073,-2.44782 10.31875,-2.43817 2.92558,0.006 4.21069,0.12153 5.41266,0.48636 4.3847,1.33093 7.06432,3.75841 8.70244,7.88347 1.46431,3.68742 1.5563,4.55605 1.68386,15.89778 l 0.11829,10.51719 H 251.8843 241.03225 l -0.0831,-8.26823 c -0.0736,-7.31271 -0.1373,-8.36731 -0.55169,-9.12564 -0.71585,-1.31 -1.56083,-1.73418 -3.40259,-1.70807 -1.74877,0.0249 -2.58326,0.41691 -3.3351,1.567 -0.44085,0.6744 -0.46178,2.56447 -0.37796,34.12757 l 0.0887,33.41363 h -12.14974 -12.14972 z m 339.81299,-14.55209 c -2.4e-4,-23.82904 -0.079,-47.16529 -0.17505,-51.85833 l -0.1746,-8.53282 h 12.17713 12.17716 l 0.12615,11.37859 c 0.0694,6.25825 0.18706,11.4395 0.26146,11.51393 0.0744,0.0744 0.82193,-0.27818 1.66111,-0.78351 2.24422,-1.35139 5.00488,-2.42866 7.53594,-2.94068 2.71428,-0.54909 8.74538,-0.40971 11.25802,0.26016 7.09059,1.89034 10.77587,7.09187 11.35417,16.02568 0.0801,1.23693 0.21693,17.10201 0.30414,35.25573 l 0.15856,33.00678 h -12.1558 -12.15578 l -0.19722,-33.13865 c -0.2145,-36.03696 -0.1443,-34.54551 -1.67304,-35.54717 -0.84505,-0.55369 -3.3546,-0.59163 -4.45833,-0.0674 -0.41572,0.19745 -0.96404,0.77559 -1.21846,1.28473 -0.43307,0.86662 -0.46265,3.0512 -0.46302,34.19711 v 33.27136 h -12.17084 -12.17083 v -43.32553 z m 148.16698,22.225 c -6e-5,-11.60528 -0.0793,-34.94153 -0.176,-51.85833 l -0.1759,-30.75782 h 12.17078 12.17078 l 0.17595,35.91719 c 0.0968,19.75446 0.17603,43.09071 0.17608,51.85834 l 10e-5,15.94115 H 709.04613 696.8753 Z M -504.333,781.0455 v -8.46667 h 16.27187 16.27188 v 8.46667 8.46667 h -16.27188 -16.27187 z m 257.70416,0 v -8.46667 h 16.13958 16.13958 v 8.46667 8.46667 h -16.13958 -16.13958 z m 594.78332,0 v -8.46667 h 16.27187 16.27187 v 8.46667 8.46667 H 364.42635 348.15448 Z M -684.51425,725.87987 v -6.21771 h 12.17084 12.17083 v 6.21771 6.21771 h -12.17083 -12.17084 z m -180.71041,-43.69668 v -7.98187 l 2.18282,-0.15415 c 1.93376,-0.13655 77.64661,-2.8167 79.30917,-2.80744 l 0.66178,0.004 -0.0904,-4.96094 c -0.0497,-2.72852 0.0989,-8.18756 0.33041,-12.13117 0.48226,-8.21661 0.53259,-14.01181 0.15145,-17.43602 -0.34366,-3.08737 -1.19258,-5.95588 -1.93369,-6.53394 -0.56708,-0.44228 -0.57529,-0.55949 -0.59276,-8.46667 -0.0193,-8.72569 -0.21797,-10.23868 -1.53047,-11.65489 -0.34834,-0.37587 -0.71562,-1.14012 -0.81618,-1.69831 -0.10056,-0.55822 -0.53244,-2.1177 -0.95975,-3.46551 -0.42731,-1.34779 -0.77875,-2.71701 -0.78097,-3.04271 -0.005,-0.70517 -0.21194,-1.02219 -0.92199,-1.41126 -0.29105,-0.15947 -0.79076,-0.75163 -1.11047,-1.31591 -0.56659,-0.99997 -0.75176,-1.67656 -1.9407,-7.09091 -0.43154,-1.96519 -0.68859,-2.64147 -1.03885,-2.73307 -0.31149,-0.0814 -0.56746,-0.57766 -0.77394,-1.50029 -0.25289,-1.13006 -0.44088,-1.42854 -1.0428,-1.65576 -1.08432,-0.40929 -2.42478,-2.2061 -4.41592,-5.91932 -0.9754,-1.81901 -1.99863,-3.55309 -2.27383,-3.85352 -0.34617,-0.37788 -0.50037,-0.93964 -0.50037,-1.8229 0,-0.85632 -0.13717,-1.377 -0.41659,-1.58131 -0.68764,-0.50281 -1.1995,-5.02708 -1.39085,-12.29347 l -0.17693,-6.71891 -5.22552,-1.87901 c -3.82879,-1.37676 -5.22552,-1.99208 -5.22552,-2.30206 0,-0.63514 -0.61618,-1.06072 -4.21765,-2.91309 -5.44354,-2.79985 -7.70221,-5.4319 -8.12396,-9.4669 -0.11098,-1.06183 -0.28712,-1.61883 -0.51193,-1.61883 -0.1885,0 -1.03474,-0.77478 -1.88054,-1.72175 -0.84579,-0.94697 -1.74616,-1.78845 -2.00082,-1.86991 -0.25466,-0.0815 -0.46302,-0.33132 -0.46302,-0.55515 0,-0.22387 -0.29766,-0.76076 -0.66146,-1.19312 -0.60995,-0.72487 -0.66177,-0.9957 -0.66548,-3.47776 -0.002,-1.48042 -0.23853,-5.9659 -0.52514,-9.96773 -0.28662,-4.00182 -0.52293,-8.6233 -0.52514,-10.26993 l -0.004,-2.99392 1.35312,-2.29778 c 0.74421,-1.26378 1.45859,-2.33746 1.5875,-2.38595 0.12891,-0.0485 0.23438,-0.2884 0.23438,-0.53309 0,-0.61505 0.91374,-2.28573 2.16496,-3.9584 0.85768,-1.14657 1.1758,-1.38965 1.73131,-1.32292 0.37431,0.045 0.77034,0.26035 0.88007,0.47863 0.10973,0.21828 0.57659,1.2024 1.03747,2.18692 0.46088,0.98451 1.24631,2.325 1.74541,2.97883 0.78938,1.03415 0.90765,1.38647 0.90901,2.70791 0.002,1.95485 0.54075,5.49981 1.83926,12.10238 1.22231,6.21512 1.86334,10.63787 1.86334,12.85592 0,1.42471 0.11279,1.75901 1.06819,3.1659 0.9424,1.38774 1.1683,1.5707 1.91823,1.55377 0.46752,-0.0106 4.73216,-0.21894 9.47698,-0.46302 l 8.62694,-0.44381 0.34177,1.15773 c 0.5129,1.73744 6.21449,10.13116 7.14854,10.52389 0.41377,0.17399 1.36637,0.80171 2.11688,1.39496 0.75052,0.59325 1.56853,1.07863 1.81781,1.07863 0.3883,0 0.74818,1.6017 2.51168,11.17864 2.75202,14.94515 2.45413,13.69219 3.25526,13.69219 0.39306,0 0.87697,-0.26617 1.17672,-0.64722 0.28001,-0.35597 0.91562,-0.79423 1.41248,-0.97391 0.99116,-0.3584 1.28477,-0.90112 3.17081,-5.86097 0.54112,-1.42301 1.27094,-2.92849 1.62183,-3.34547 0.80391,-0.95541 0.80604,-0.46837 -0.0596,-13.64639 -0.52105,-7.93205 -0.80407,-10.90284 -1.05291,-11.05225 -0.60461,-0.36304 -3.37848,-4.75793 -4.46723,-7.07785 l -1.05834,-2.25507 -1.81426,-0.44699 c -3.16615,-0.78001 -10.2957,-4.51334 -12.40709,-6.49684 -0.40018,-0.37595 -0.72761,-0.89665 -0.72761,-1.1571 0,-0.26048 -0.29213,-0.66501 -0.64919,-0.89895 -0.417,-0.27324 -0.79466,-0.92575 -1.0559,-1.82438 -0.52322,-1.7998 -1.84048,-3.74505 -5.20359,-7.68432 -2.60222,-3.04803 -4.54692,-5.74384 -4.86388,-6.74249 -0.10177,-0.32064 -0.8132,-0.6637 -2.21863,-1.06979 -2.24601,-0.64899 -2.27068,-0.6741 -3.46848,-3.5303 -1.33906,-3.19305 -1.65397,-9.1127 -0.9308,-17.49701 0.21338,-2.47385 0.3904,-5.36609 0.39338,-6.42718 0.004,-1.5621 0.1505,-2.24186 0.76775,-3.57187 0.41927,-0.90345 1.03802,-2.50582 1.37499,-3.56084 0.33697,-1.05503 0.75152,-1.91823 0.92122,-1.91823 0.16969,0 0.76104,-1.07908 1.31409,-2.39795 0.88314,-2.106 1.12914,-2.46099 2.02064,-2.91579 0.66082,-0.33713 1.01507,-0.70064 1.01507,-1.04163 0,-0.28808 0.11477,-0.5238 0.25505,-0.5238 0.14027,0 0.54782,-0.43085 0.90566,-0.95747 l 0.65061,-0.95745 0.68915,1.28817 c 0.37903,0.70853 1.09047,2.04177 1.58098,2.96281 0.49051,0.92104 0.97441,2.23073 1.07534,2.91042 0.10093,0.67968 0.65602,3.14081 1.23355,5.46915 0.76312,3.07657 1.19026,4.33252 1.56318,4.59634 0.28223,0.19965 0.51381,0.49731 0.51462,0.66146 0.004,0.75715 0.58515,2.28311 0.87086,2.28568 0.17506,0.003 0.79454,0.91099 1.37663,2.02097 0.58208,1.10995 1.50481,2.52592 2.05052,3.14658 0.5457,0.62069 0.99218,1.25058 0.99218,1.39978 0,0.14922 0.40408,0.69974 0.89796,1.2234 0.49387,0.52367 0.9716,1.34472 1.06162,1.82457 0.09,0.47985 0.40032,1.12646 0.68955,1.43693 0.36008,0.3865 0.52587,0.9326 0.52587,1.73222 0,1.98708 1.23983,6.22822 2.65364,9.07738 2.25172,4.53782 5.55019,7.51322 8.31237,7.49824 1.92908,-0.0103 4.90899,-1.92148 4.90899,-3.14817 0,-0.29588 0.27514,-0.71824 0.61141,-0.93858 0.5827,-0.3818 0.62676,-0.63987 0.9383,-5.49622 0.1798,-2.80257 0.49732,-7.29824 0.7056,-9.99038 0.59896,-7.74155 0.61119,-7.60584 -0.93239,-10.34407 -0.90229,-1.60059 -1.32292,-2.6471 -1.32292,-3.29141 0,-1.30792 -0.885,-2.49219 -2.88564,-3.86147 -1.49118,-1.0206 -1.73425,-1.31045 -2.07282,-2.47181 -0.21095,-0.72358 -0.59674,-1.46497 -0.85731,-1.64748 -0.26057,-0.18251 -0.55647,-0.66136 -0.65756,-1.06413 -0.25794,-1.02772 -0.53632,-1.29598 -2.08577,-2.00988 -0.74952,-0.34536 -2.58715,-1.65836 -4.08362,-2.91777 -1.49646,-1.25945 -2.83591,-2.28989 -2.97656,-2.28989 -0.14064,0 -0.25572,-0.36402 -0.25572,-0.80894 0,-2.49047 -0.74978,-5.28979 -2.0938,-7.8172 -0.6577,-1.23682 -2.57363,-3.90506 -3.15723,-4.397 -0.77144,-0.65024 -3.12036,-4.70395 -2.7257,-4.70395 0.13146,0 0.38724,0.1786 0.5684,0.39688 0.18116,0.21828 0.46363,0.39309 0.62771,0.38846 0.16408,-0.004 0.0995,-0.15963 -0.14353,-0.34444 -0.68115,-0.51797 -1.28682,-4.97393 -1.66028,-12.21486 -0.10899,-2.11317 -0.0801,-2.45941 0.14366,-1.71979 0.15406,0.50932 0.36881,1.01809 0.47721,1.13062 0.1084,0.1125 0.34961,-2.68547 0.53604,-6.21771 0.36686,-6.951 0.46027,-7.34214 2.08439,-8.72813 0.50176,-0.4282 0.98997,-1.43071 1.64826,-3.38463 l 0.93533,-2.77619 3.93388,-0.0735 3.93387,-0.0734 1.3485,1.50971 c 0.74168,0.83035 1.49235,1.84748 1.66816,2.26031 0.17582,0.41283 0.50324,0.82106 0.72761,0.90715 0.22437,0.0861 0.40855,0.4117 0.4093,0.72356 7.9e-4,0.31184 0.29468,1.04325 0.6532,1.62534 0.35851,0.58208 0.6576,1.35598 0.66463,1.71979 0.007,0.3638 0.24684,1.55442 0.53289,2.64583 0.28606,1.09141 0.52214,2.3322 0.52464,2.7573 0.002,0.42511 0.17119,0.96089 0.37488,1.19063 0.2037,0.22974 1.10924,1.76442 2.01232,3.41042 0.90308,1.646 1.69305,2.94162 1.75549,2.87917 0.0624,-0.0624 -0.007,-0.63523 -0.15376,-1.27291 -0.50253,-2.17971 -0.33686,-3.27848 1.026,-6.80476 1.92027,-4.96859 2.26737,-7.55693 2.25882,-16.84423 -0.004,-4.1965 -0.15146,-8.67013 -0.34044,-10.31875 -0.50914,-4.44161 -1.32918,-10.33909 -2.1706,-15.61041 -1.86809,-11.70311 -1.96009,-12.60571 -1.96867,-19.31459 -0.008,-5.87991 0.0433,-6.58762 0.68645,-9.55984 0.96017,-4.43715 2.60618,-9.62245 3.05454,-9.62245 0.19715,0 1.64749,-0.41672 3.22298,-0.92604 1.5755,-0.50933 3.03294,-0.92604 3.23876,-0.92604 0.61925,0 0.93948,0.81198 1.30586,3.31112 0.22067,1.50514 0.56306,2.71717 0.93321,3.30346 0.5379,0.85198 0.59716,1.35977 0.74106,6.35 0.37855,13.12762 1.77047,26.65706 4.69525,45.63777 1.71375,11.1216 1.91392,9.50907 -2.89649,23.33355 -1.60339,4.60791 -2.5404,6.3867 -5.238,9.94363 -0.73362,0.96731 -1.15605,1.79792 -1.15605,2.27311 0,0.41185 0.54239,2.94058 1.20531,5.61943 0.66291,2.67886 1.27376,5.59679 1.35744,6.48431 l 0.15214,1.61366 -0.76915,0.15383 c -0.42304,0.0846 -1.10812,0.42048 -1.52241,0.74634 -0.70459,0.55422 -0.74461,0.68794 -0.61935,2.06928 0.0737,0.81222 0.3204,1.9231 0.54834,2.46864 l 0.41443,0.99187 h 5.17288 c 4.74978,0 5.17296,0.0379 5.17386,0.46302 5.3e-4,0.25466 0.24185,0.85807 0.53623,1.34091 1.09273,1.79232 4.48456,2.57871 9.86583,2.28738 3.35164,-0.18143 3.39465,-0.1918 3.65161,-0.88069 0.14301,-0.38339 0.50292,-0.8844 0.79981,-1.11334 0.52759,-0.40688 0.53295,-0.51745 0.23728,-4.8948 -0.73943,-10.94703 -2.26583,-15.98218 -5.21903,-17.21612 -0.52552,-0.21958 -0.91517,-0.59658 -0.98824,-0.9562 -0.0664,-0.32652 -0.25564,-2.79636 -0.42065,-5.48849 -0.3041,-4.96134 -0.67718,-8.27329 -2.08629,-18.52084 -1.15524,-8.40134 -1.44726,-12.28204 -1.2744,-16.93547 0.29468,-7.93258 2.36071,-14.805 6.34945,-21.12071 0.98162,-1.5543 1.10281,-1.65786 1.42473,-1.21762 0.19352,0.26467 0.35185,0.63201 0.35185,0.81637 0,0.34738 1.68206,3.55884 3.00861,5.74416 0.58436,0.96266 0.81876,1.78292 1.01579,3.55476 0.33853,3.04427 0.18178,5.43885 -0.39797,6.07946 -0.69342,0.76624 -0.58706,2.34112 0.20787,3.07785 0.36261,0.33605 0.96951,1.31262 1.34867,2.17016 0.37915,0.85754 0.78952,1.62119 0.91191,1.69701 0.1224,0.0758 0.30623,1.3855 0.40851,2.91042 0.20706,3.08711 0.4349,3.9632 1.03069,3.9632 0.51725,0 0.51454,0.71122 -0.0127,3.34512 -0.31932,1.59507 -0.57246,2.20975 -1.0878,2.64144 -0.5862,0.49102 -0.71462,0.91176 -1.00953,3.3073 l -0.33789,2.74468 0.63852,0.68281 c 0.41239,0.44098 0.72382,1.20695 0.8794,2.16283 0.50514,3.1037 1.76937,4.30546 4.50846,4.2857 2.09622,-0.0151 4.08639,-0.88638 6.04285,-2.64541 l 1.31094,-1.17864 h 2.79725 2.79725 l 0.0743,3.24112 0.0743,3.24115 0.98798,0.52903 c 0.84926,0.45474 1.03086,0.72062 1.29335,1.89354 l 0.30537,1.36451 -1.06793,1.28149 c -4.91289,5.89528 -8.09901,14.52205 -8.68163,23.50645 l -0.17158,2.64584 1.35362,2.77812 c 1.38682,2.84631 1.76554,3.51142 2.3428,4.11456 0.24854,0.25969 0.33073,2.19282 0.33073,7.77846 0,7.35698 -0.006,7.443 -0.62473,8.41942 -0.3436,0.54258 -0.96868,2.26721 -1.38906,3.83251 -0.53601,1.99583 -0.89915,2.88923 -1.21565,2.99069 -0.61981,0.19868 -3.80726,3.67896 -4.21681,4.6042 -0.23177,0.52361 -0.64485,0.84545 -1.3603,1.05979 -0.56509,0.16931 -2.19809,0.94713 -3.62887,1.7285 -1.43078,0.78137 -3.07794,1.56342 -3.66036,1.73792 -0.60627,0.18166 -1.11112,0.51683 -1.18101,0.78409 -0.19464,0.74432 -1.19076,1.23415 -4.02217,1.97792 -1.45521,0.38227 -3.10166,0.99256 -3.65879,1.3562 -0.97378,0.63558 -2.01086,2.33159 -2.02394,3.30983 -0.003,0.2391 -0.18941,0.50517 -0.41381,0.59129 -0.45334,0.17397 -1.42921,2.14138 -1.43827,2.89965 -0.003,0.26733 -0.77972,1.25241 -1.7256,2.18903 -1.35786,1.34453 -1.7198,1.87039 -1.7198,2.49857 0,0.58126 -0.25494,1.01946 -0.94627,1.62647 -0.52045,0.45696 -1.8297,2.16868 -2.90945,3.80384 l -1.96318,2.97301 -0.29687,4.72088 c -0.46244,7.35378 -0.0526,11.90218 1.27782,14.18011 0.70181,1.20166 2.06076,2.05015 3.28354,2.05015 1.87116,0 6.26982,-1.96651 10.81265,-4.83404 5.41863,-3.42035 8.8736,-4.93509 12.20607,-5.35147 1.46069,-0.18251 1.47142,-0.1787 1.8112,0.64162 0.18799,0.45384 0.49509,0.91165 0.68245,1.01735 0.19812,0.11176 0.63961,1.88918 1.05514,4.24788 l 0.71449,4.0557 -1.32047,2.82347 c -0.72626,1.55289 -1.76171,3.98431 -2.301,5.40314 l -0.98053,2.57968 h -1.00948 c -0.65325,0 -1.06324,0.14005 -1.16179,0.39688 -0.0838,0.21828 -0.36439,0.40219 -0.62362,0.40873 -0.27606,0.007 -1.129,0.90474 -2.05882,2.16717 -0.87313,1.18544 -3.70086,4.24702 -6.28385,6.8035 -2.583,2.55648 -4.69636,4.83865 -4.69636,5.07143 0,0.32165 -0.49226,0.50673 -2.05052,0.77089 -1.79412,0.30416 -2.15804,0.46418 -2.91042,1.27976 -1.05728,1.1461 -1.06917,1.47886 -0.32283,9.03081 1.00687,10.18818 0.96277,16.01047 -0.1274,16.82007 -0.21004,0.15597 -0.5751,1.13302 -0.81123,2.17125 -0.57327,2.5205 -1.26061,3.48811 -2.79223,3.93084 -1.5758,0.45548 -3.16208,1.99572 -6.28933,6.10671 -1.35223,1.7776 -2.73331,3.44448 -3.06908,3.70417 -0.65514,0.50673 -0.53154,-0.15933 -2.44456,13.17217 -0.5278,3.67814 -0.69052,5.91699 -0.71467,9.83298 -0.0306,4.95538 -0.0174,5.08529 0.58065,5.72328 0.60837,0.649 0.614,0.72086 0.9699,12.39203 0.19688,6.45657 0.48422,12.21547 0.63853,12.79755 0.15431,0.58208 0.28514,1.59411 0.29073,2.24896 0.006,0.65484 0.19743,1.72641 0.42632,2.38125 0.22889,0.65484 0.60716,2.54476 0.84062,4.19978 0.39666,2.81207 0.39514,3.03062 -0.0231,3.33648 -0.4916,0.35946 -0.56806,1.55236 -0.27762,4.33118 l 0.16999,1.62631 1.61595,0.007 c 2.68693,0.0116 57.09321,-1.87315 58.30293,-2.0198 l 1.12448,-0.13629 V 548.0851 427.86975 l 1.65365,-0.5347 c 3.85188,-1.24534 9.25284,-2.94791 9.35184,-2.94791 0.0589,0 0.107,54.84004 0.107,121.86672 v 121.86675 l 2.97656,-0.15459 c 1.63711,-0.085 4.85179,-0.22837 7.14375,-0.31854 l 4.16718,-0.16396 V 651.3718 c 0,-8.86145 0.0609,-16.11173 0.13535,-16.11173 0.17128,0 17.25194,-3.13801 18.05476,-3.31695 l 0.59531,-0.13271 v 17.50621 17.50621 l 6.28385,-0.17605 c 3.45612,-0.0968 7.39682,-0.25046 8.75711,-0.3414 l 2.47325,-0.16536 -0.17133,-41.1707 c -0.25506,-61.29203 -0.67044,-187.2467 -0.67241,-203.89431 l -0.002,-14.5569 5.44231,-1.80687 c 2.99326,-0.99377 5.48462,-1.76453 5.53635,-1.7128 0.14934,0.14933 0.48558,81.69384 0.83585,202.70415 0.0955,33.0022 0.24454,60.03931 0.33115,60.08249 0.0866,0.0432 12.48044,-0.37065 27.54184,-0.91964 15.06141,-0.54901 28.06899,-1.00541 28.90573,-1.01428 l 1.52135,-0.0161 v -2.54629 c 0,-1.40047 0.25482,-6.25227 0.56627,-10.78178 0.63391,-9.2194 0.74945,-18.53496 0.2695,-21.72922 -0.43683,-2.90716 -1.09855,-5.15938 -1.51588,-5.15938 -0.59933,0 -0.73975,-2.19638 -0.76112,-11.90625 -0.022,-9.97344 -0.0697,-10.41061 -1.34067,-12.28352 -0.36172,-0.53303 -0.65768,-1.23473 -0.65768,-1.55935 0,-0.32461 -0.34488,-2.01596 -0.76639,-3.75856 -0.42151,-1.7426 -0.85196,-3.69361 -0.95652,-4.33557 -0.13264,-0.81428 -0.41958,-1.36028 -0.94904,-1.80578 -0.97665,-0.8218 -1.38983,-2.22451 -2.35606,-7.99875 -0.61317,-3.66448 -0.87976,-4.70567 -1.28709,-5.02709 -0.32962,-0.26008 -0.57769,-0.89331 -0.69226,-1.76704 -0.15213,-1.16054 -0.32834,-1.48212 -1.19255,-2.17662 -1.17536,-0.94454 -2.11003,-2.57533 -3.8513,-6.71965 -0.6866,-1.63418 -1.53017,-3.53277 -1.87463,-4.21918 -0.45151,-0.89974 -0.62624,-1.69336 -0.62624,-2.84427 0,-1.20285 -0.0926,-1.59629 -0.37584,-1.59629 -0.80825,0 -1.20179,-3.98134 -1.39123,-14.07398 l -0.16235,-8.65002 -4.78997,-2.22692 c -3.44717,-1.60264 -4.81619,-2.36715 -4.88345,-2.72706 -0.15311,-0.81934 -0.81436,-1.40184 -3.90793,-3.44263 -5.45001,-3.59516 -7.7727,-7.14991 -7.7727,-11.89545 0,-0.82228 -0.12458,-1.23373 -0.40628,-1.34181 -0.22345,-0.0857 -0.92754,-0.88569 -1.56462,-1.77763 -0.6371,-0.89197 -1.4663,-1.91037 -1.84268,-2.26317 -0.37639,-0.35279 -0.68433,-0.84275 -0.68433,-1.08881 0,-0.24604 -0.22267,-0.73131 -0.49482,-1.07834 -0.41088,-0.52398 -0.52542,-1.30421 -0.67525,-4.59975 -0.0992,-2.18282 -0.34825,-7.24297 -0.55337,-11.24479 -0.20511,-4.00183 -0.45293,-9.19573 -0.55069,-11.54203 l -0.17776,-4.26601 1.5667,-3.27462 c 0.86169,-1.80104 1.77363,-3.89458 2.02653,-4.65232 0.25291,-0.75772 0.94702,-2.22269 1.54246,-3.25546 1.50557,-2.61139 2.20378,-2.46325 3.13164,0.66439 0.17269,0.58209 0.82562,2.1299 1.45096,3.43959 1.08181,2.26568 1.15194,2.56103 1.44493,6.08541 0.16936,2.03729 0.53618,5.25198 0.81515,7.14375 0.27897,1.89177 0.8692,5.88037 1.31162,8.86354 0.44242,2.98318 0.93318,7.32896 1.09057,9.6573 0.26416,3.90776 0.34846,4.35541 1.096,5.82083 0.44541,0.87313 0.88199,1.66706 0.97019,1.7643 0.0882,0.0972 3.55363,-0.0489 7.70097,-0.32475 4.14734,-0.27583 8.08442,-0.50419 8.74908,-0.5075 l 1.20846,-0.006 0.47278,1.52136 c 0.64016,2.06002 5.75559,11.96163 6.18276,11.96761 0.18767,0.003 1.14623,0.76088 2.13019,1.68499 0.98393,0.92411 1.92325,1.72779 2.08737,1.78594 0.17958,0.0636 1.09937,5.63637 2.31016,13.99636 1.10649,7.63984 2.0769,14.21804 2.15651,14.61823 0.19998,1.00528 1.14335,0.97477 1.90971,-0.0618 0.321,-0.43416 0.91551,-0.96102 1.32115,-1.17079 0.91411,-0.4727 1.0401,-0.74993 2.41816,-5.32153 1.26103,-4.18325 2.06552,-6.21205 2.46332,-6.21205 0.29326,0 0.29205,-0.0337 -0.63418,-17.67846 l -0.55996,-10.66699 -1.04241,-1.56099 c -1.0745,-1.60912 -2.74095,-5.18811 -3.80709,-8.1765 l -0.60748,-1.70272 -1.67145,-0.5669 c -2.1466,-0.72803 -2.9754,-1.16414 -6.03782,-3.17709 -3.45022,-2.26782 -6.34926,-4.97367 -6.34926,-5.92609 0,-0.41891 -0.26435,-0.9712 -0.62868,-1.31347 -0.3784,-0.35549 -0.68556,-1.01478 -0.7716,-1.65621 -0.22135,-1.65023 -1.96773,-4.99554 -4.95268,-9.48709 -2.56273,-3.85622 -4.49496,-7.35396 -4.49496,-8.13678 0,-0.19058 -0.20836,-0.41706 -0.46302,-0.50329 -3.2295,-1.09371 -3.47557,-1.24944 -4.04274,-2.55847 -2.01429,-4.64897 -2.478,-10.67633 -1.71344,-22.27125 0.2111,-3.20146 0.38798,-6.8924 0.39306,-8.20208 0.008,-1.99266 0.15532,-2.81303 0.9044,-5.02709 0.49235,-1.4552 1.04888,-3.34248 1.23676,-4.19393 0.18788,-0.85149 0.49212,-1.60589 0.67609,-1.67648 0.18399,-0.0706 0.76599,-1.42322 1.29333,-3.0058 0.84574,-2.5382 1.0658,-2.94357 1.86635,-3.43834 0.62889,-0.38868 0.90755,-0.75737 0.90755,-1.20079 0,-0.35192 0.10252,-0.63987 0.2278,-0.63987 0.12531,0 0.50565,-0.52366 0.84519,-1.16371 l 0.61735,-1.16372 0.57393,1.36215 c 0.31568,0.7492 0.95779,2.25513 1.4269,3.34653 0.49144,1.14327 1.00886,2.99371 1.22074,4.36563 0.8651,5.60152 2.07578,11.07832 2.53605,11.47241 0.27557,0.23593 0.53502,0.97028 0.64016,1.81187 0.12396,0.99206 0.3256,1.49474 0.67456,1.68151 0.27374,0.1465 0.49773,0.38319 0.49773,0.52596 0,0.46128 2.38535,5.37967 2.87732,5.93278 0.26215,0.29475 0.63399,0.95261 0.82632,1.46193 0.19232,0.50932 0.61256,1.28442 0.9339,1.72244 0.32131,0.43801 0.674,1.21192 0.78375,1.71979 0.10975,0.50787 0.42315,1.36514 0.69641,1.90505 0.29408,0.58097 0.49689,1.53593 0.49689,2.33969 0,2.97778 1.56964,8.93622 3.3126,12.5748 2.65608,5.54479 5.99729,7.8324 8.92969,6.11391 1.23365,-0.72295 2.57437,-2.40088 2.57437,-3.22181 0,-0.27384 0.25562,-0.76996 0.56801,-1.10252 0.51914,-0.55258 0.5865,-1.02097 0.78266,-5.44102 0.11803,-2.65999 0.3982,-7.85352 0.62259,-11.54115 0.63014,-10.35534 0.6286,-10.38162 -0.78263,-13.56455 -0.82442,-1.85942 -1.19063,-3.0438 -1.19063,-3.85067 0,-1.11908 -1.07892,-3.79354 -1.53035,-3.79354 -0.10919,0 -0.81031,-0.53518 -1.55802,-1.18925 -1.19222,-1.04291 -1.38155,-1.34956 -1.53864,-2.49174 -0.0996,-0.72375 -0.46333,-1.68768 -0.81877,-2.16943 -0.35179,-0.47683 -0.63964,-1.02836 -0.63964,-1.22558 0,-0.77753 -0.8038,-1.86499 -1.50942,-2.0421 -0.45489,-0.11417 -1.94971,-1.43833 -3.92988,-3.48126 l -3.19574,-3.29702 -0.32518,-3.23046 c -0.19907,-1.97776 -0.53599,-3.74346 -0.86889,-4.55337 -1.28479,-3.126 -3.0566,-6.613 -3.7288,-7.33841 -0.68752,-0.742 -2.97008,-5.45827 -2.74875,-5.6796 0.0573,-0.0572 0.28834,0.0802 0.51355,0.30541 0.22522,0.22521 0.55981,0.40947 0.74354,0.40947 0.20627,0 0.16126,-0.12652 -0.11766,-0.33073 -0.70165,-0.51374 -1.21923,-5.18697 -1.60436,-14.48594 -0.10472,-2.5282 -0.0794,-2.83019 0.14933,-1.78594 0.15145,0.69123 0.357,1.25678 0.45683,1.25678 0.0998,0 0.31975,-3.468 0.48871,-7.70666 l 0.30719,-7.70665 0.87174,-1.45121 c 0.47946,-0.79817 1.02058,-1.51008 1.20248,-1.58208 0.1819,-0.072 0.33036,-0.32647 0.32989,-0.56557 0,-0.23908 0.23555,-1.26815 0.52445,-2.28679 0.2889,-1.01865 0.65106,-2.3581 0.80479,-2.97657 l 0.2795,-1.12448 3.7601,0.0172 3.76013,0.0172 1.25677,1.94027 c 0.69122,1.06717 1.25677,2.09351 1.25677,2.28084 0,0.1873 0.21471,0.58634 0.47712,0.88675 0.26239,0.30043 0.62667,1.14001 0.80949,1.86574 0.18283,0.72572 0.49221,1.49963 0.6875,1.71979 0.19529,0.22016 0.40388,0.9956 0.46352,1.7232 0.26374,3.21697 1.12686,7.21318 1.94297,8.99584 0.46635,1.01864 1.23632,2.80458 1.71103,3.96875 0.47474,1.16416 0.98272,2.23573 1.12887,2.38125 0.17767,0.17692 0.20895,0.1039 0.0944,-0.22037 -0.0942,-0.2667 -0.24037,-1.63592 -0.32475,-3.04271 -0.14957,-2.49344 -0.12374,-2.65092 1.02648,-6.26192 1.79633,-5.63933 2.16503,-9.04285 2.164,-19.97605 0,-10.5143 -0.36883,-15.28416 -2.5096,-32.54375 -1.63166,-13.15482 -1.68974,-13.88509 -1.704,-21.43125 -0.0156,-8.21814 0.3188,-11.09898 2.17988,-18.7829 0.83574,-3.45054 1.07542,-4.11375 1.51611,-4.19476 0.2879,-0.0529 1.61873,-0.5601 2.95736,-1.12702 1.33866,-0.5669 2.61437,-1.03074 2.83496,-1.03074 0.63447,0 0.86537,0.72351 1.22441,3.83646 0.22532,1.95342 0.53239,3.30192 0.93387,4.10104 0.56822,1.13104 0.6059,1.58131 0.75253,8.99584 0.21272,10.75602 0.94731,21.77219 2.41713,36.24792 0.63153,6.21958 2.26248,20.22049 2.77389,23.8125 0.58325,4.09641 0.15412,6.97656 -2.38509,16.00729 -0.98197,3.4925 -1.93762,7.00484 -2.1236,7.80521 -0.35967,1.54773 -2.46364,6.03832 -4.06162,8.66889 -0.62843,1.03452 -0.96393,1.91275 -0.96393,2.52333 0,0.51509 0.47938,3.41654 1.0653,6.44768 0.58589,3.03112 1.13842,6.48007 1.22782,7.66432 0.15402,2.04004 0.13272,2.16263 -0.40526,2.33339 -0.31229,0.0991 -0.92435,0.48022 -1.36012,0.8469 -0.70982,0.59727 -0.79179,0.82267 -0.78721,2.16453 0.008,2.3277 0.55321,4.08972 1.33297,4.30739 0.35547,0.0992 2.56548,0.19228 4.91117,0.20678 l 4.26484,0.0265 0.15068,0.92856 c 0.48326,2.97802 3.70123,4.29064 9.66563,3.94261 l 3.00019,-0.17508 0.48355,-1.12802 c 0.26593,-0.62042 0.63545,-1.17869 0.82111,-1.24058 0.27286,-0.091 0.27702,-1.23571 0.0217,-5.97093 -0.67077,-12.44153 -2.13317,-18.76356 -4.6247,-19.99263 -0.56867,-0.28054 -1.03415,-0.72679 -1.10392,-1.05834 -0.0664,-0.31533 -0.24794,-3.19267 -0.40349,-6.39413 -0.3156,-6.49536 -0.48675,-8.51638 -1.59107,-18.78542 -0.42254,-3.92906 -0.92237,-8.63203 -1.11075,-10.45104 -0.53784,-5.19335 -0.45162,-17.39186 0.15057,-21.29896 0.8902,-5.77578 2.48524,-11.08453 4.90165,-16.31424 1.06003,-2.29414 1.54154,-2.94047 1.70564,-2.28951 0.36938,1.46523 1.62163,4.58239 3.01077,7.49461 0.8001,1.67735 0.90638,2.18533 1.10725,5.29167 0.23326,3.60738 0.0644,6.01519 -0.45857,6.53814 -0.17116,0.17116 -0.31107,0.91247 -0.31089,1.64735 2.7e-4,1.0428 0.14528,1.50471 0.66061,2.10389 0.36314,0.42227 0.86183,1.4343 1.10821,2.24896 0.24638,0.81468 0.59132,1.65981 0.7665,1.87809 0.18232,0.22717 0.42905,2.01533 0.57698,4.18174 0.22881,3.35105 0.324,3.84596 0.83042,4.31776 0.43201,0.40249 0.53914,0.73885 0.4377,1.37451 -0.0739,0.46289 -0.27229,1.79411 -0.44088,2.95828 -0.23154,1.59861 -0.46371,2.28619 -0.94858,2.80932 -0.56484,0.60936 -0.67824,1.09379 -0.94298,4.02826 -0.29564,3.2772 -0.2907,3.34647 0.28186,3.95597 0.41397,0.44063 0.64971,1.15146 0.81389,2.45401 0.27686,2.19636 0.76705,3.44006 1.73299,4.39661 1.86071,1.84261 5.0736,0.92702 8.01635,-2.28447 l 1.58858,-1.73366 h 2.5486 2.5486 v 4.05937 4.0594 l 0.90763,0.48879 c 0.82076,0.44199 0.9358,0.65051 1.20181,2.17816 l 0.29419,1.68936 -1.03904,1.64521 c -4.56496,7.2281 -7.25998,16.35101 -7.97811,27.00663 l -0.26641,3.95293 1.03878,2.66165 c 0.57134,1.46389 1.12157,3.01882 1.22274,3.45538 0.10118,0.43656 0.31851,0.9152 0.48295,1.06363 0.90815,0.81965 0.96046,1.3876 0.96046,10.42704 0,8.34888 -0.0356,9.04619 -0.50353,9.8593 -0.27694,0.48128 -0.58068,1.29175 -0.67495,1.80108 -0.0943,0.50932 -0.42691,2.05713 -0.73914,3.43958 -0.49705,2.20064 -0.69808,2.64956 -1.61483,3.6063 -1.24857,1.30299 -2.97008,3.86043 -3.40532,5.0588 -0.1936,0.53311 -0.49207,0.8599 -0.78536,0.8599 -0.26022,0 -1.81388,0.91286 -3.4526,2.02856 -1.6387,1.11572 -3.36643,2.14773 -3.83937,2.29336 -0.52801,0.16258 -0.8599,0.43796 -0.8599,0.71347 0,0.87686 -1.26542,1.72837 -3.69911,2.48917 -3.72102,1.16327 -4.95216,2.34842 -5.41851,5.21603 -0.0864,0.53165 -0.32427,1.03076 -0.52851,1.10913 -0.33112,0.12708 -0.93191,1.76776 -1.32294,3.61278 -0.0771,0.3638 -0.79576,1.46526 -1.597,2.44769 -1.16223,1.42502 -1.45685,1.97781 -1.45685,2.73359 0,0.69726 -0.25318,1.25635 -0.95903,2.11775 -0.52747,0.64371 -1.7702,2.7227 -2.76164,4.62 l -1.80258,3.44961 -0.30589,6.27245 c -0.64095,13.14366 0.64252,18.57558 4.38904,18.57558 1.56105,0 4.63415,-1.61605 8.08914,-4.25384 1.50902,-1.1521 3.69617,-2.8208 4.86034,-3.70824 2.46854,-1.88174 5.07092,-3.26086 7.1995,-3.81529 2.24065,-0.58362 2.65035,-0.52999 2.84863,0.37285 0.0926,0.42148 0.39971,0.9757 0.6825,1.23163 0.28278,0.25594 0.51101,0.77428 0.50715,1.15192 -0.004,0.37761 0.25321,2.54299 0.57129,4.81192 l 0.57827,4.12536 -0.80984,1.96006 c -0.4454,1.07805 -1.18602,3.21024 -1.64581,4.73821 -1.87886,6.24369 -1.80745,6.08542 -2.74587,6.08542 -0.55428,0 -0.95345,0.18034 -1.17129,0.52917 -0.18176,0.29104 -0.48913,0.52916 -0.68304,0.52916 -0.19394,0 -0.6622,0.56555 -1.04058,1.25677 -1.34909,2.46441 -3.91282,6.04449 -7.38318,10.3101 -1.93727,2.3812 -3.58693,4.59129 -3.66588,4.91133 -0.11485,0.46546 -0.53715,0.68916 -2.1106,1.11803 -1.80068,0.49077 -2.01753,0.62526 -2.56406,1.59025 -0.76345,1.348 -0.77332,2.9709 -0.074,12.16665 0.54245,7.13338 0.67035,15.0109 0.27681,17.04994 -0.1247,0.64622 -0.41717,1.31418 -0.64992,1.48439 -0.23275,0.17018 -0.42495,0.65349 -0.42709,1.074 -0.005,0.94903 -0.65381,3.74845 -1.0918,4.70974 -0.20955,0.45992 -0.83794,0.95848 -1.75459,1.39213 -1.6837,0.79653 -2.7445,2.12542 -5.79969,7.26562 -1.10607,1.86087 -2.32818,3.71554 -2.71584,4.12149 -0.75989,0.79579 -0.83553,1.30014 -2.41245,16.08394 -1.13392,10.63078 -1.14191,17.26957 -0.0222,18.48829 0.48813,0.53131 0.52588,1.16314 0.69789,11.67422 0.22312,13.63689 0.6791,20.82159 1.56898,24.72208 0.24693,1.08236 0.53202,3.04237 0.63352,4.35555 l 0.18454,2.3876 2.51354,-0.0698 c 1.38245,-0.0384 12.39573,-0.4204 24.47396,-0.84892 12.07823,-0.42852 22.16878,-0.77954 22.42344,-0.78002 0.43979,0 0.46302,-3.49454 0.46302,-69.6559 v -69.65504 l 8.92969,-3.71647 8.92968,-3.71647 0.0699,-8.25248 c 0.0533,-6.29365 -0.006,-8.25246 -0.24845,-8.25246 -0.25286,0 -16.05862,4.99946 -17.35185,5.48846 -0.26537,0.10036 -0.31877,-3.75841 -0.26458,-19.1261 l 0.0679,-19.25182 8.81179,-2.84014 c 4.84648,-1.5621 8.8668,-2.89518 8.93403,-2.96239 0.0672,-0.0672 0.0905,-3.34062 0.0517,-7.27421 l -0.0705,-7.15198 -6.48229,2.11518 c -6.98598,2.2795 -8.59157,2.55419 -9.90388,1.69432 -1.50651,-0.98711 -1.50024,-0.90864 -1.41708,-17.71259 0.0839,-16.95937 -0.0143,-15.94194 1.73934,-18.04228 1.27461,-1.52667 2.35654,-2.02618 9.25089,-4.27091 l 6.94532,-2.26134 v -5.65234 -5.65238 l 1.91822,-0.55951 c 1.05503,-0.30771 2.66237,-0.77743 3.57188,-1.04381 l 1.65365,-0.48432 v 133.62713 133.62711 l 6.94531,-0.20153 c 3.81992,-0.11084 8.73125,-0.27686 10.91406,-0.36896 l 3.96875,-0.16746 0.13229,-45.49894 0.13229,-45.49897 8.33438,-2.68536 8.33437,-2.68537 0.0692,-10.37357 c 0.0654,-9.80469 0.0437,-10.36513 -0.39687,-10.22035 -5.0228,1.65084 -16.09429,5.1761 -16.25605,5.1761 -0.11954,0 -0.21736,-8.6101 -0.21736,-19.13359 v -19.13355 l 8.46667,-2.74741 8.46666,-2.74738 v -10.00133 c 0,-7.76243 -0.0732,-10.00133 -0.32691,-10.00133 -0.3234,0 -16.02523,4.98263 -16.40798,5.20671 -0.10914,0.0639 -0.19772,-8.55263 -0.19688,-19.14787 l 0.003,-19.26405 8.26667,-2.65766 8.26666,-2.65766 0.0704,-7.19807 c 0.0473,-4.83254 -0.0196,-7.19807 -0.2036,-7.19807 -0.1507,0 -3.90308,1.17599 -8.33863,2.61331 l -8.06463,2.61335 V 417.2617 398.03046 l 8.26823,-2.6466 8.26822,-2.6466 0.0698,-8.64904 c 0.0384,-4.75697 -0.0298,-8.64905 -0.15155,-8.64905 -0.20574,0 -10.19707,3.17349 -14.53644,4.61714 l -1.91823,0.63817 5e-5,-19.23026 3e-5,-19.23026 8.40049,-2.73349 c 8.48368,-2.76058 16.52569,-5.3363 16.66121,-5.3363 0.0405,0 0.0736,73.06271 0.0736,162.36155 v 162.36154 l 4.56406,-0.16875 c 2.51024,-0.0928 6.79649,-0.24752 9.525,-0.34375 l 4.96094,-0.17497 v -84.3139 -84.3139 l 8.73125,-2.8516 8.73125,-2.85157 v -8.4263 c 0,-4.63444 -0.0893,-8.476 -0.19844,-8.53678 -0.10914,-0.0608 -4.00843,1.12112 -8.6651,2.62641 -4.65667,1.5053 -8.4972,2.73863 -8.53453,2.74072 -0.0373,0.003 -0.0373,-8.64405 0,-19.21362 l 0.0679,-19.21743 8.33893,-2.68933 c 4.58642,-1.4791 8.48572,-2.78001 8.6651,-2.89087 0.24548,-0.15171 0.32618,-1.96948 0.32618,-7.34756 v -7.14597 l -0.59531,0.1801 c -1.06461,0.32208 -16.16514,5.19904 -16.52304,5.33639 -0.28552,0.10953 -0.3355,-3.30801 -0.27975,-19.12928 l 0.0679,-19.26264 8.3678,-2.69089 c 4.60226,-1.48 8.50156,-2.77358 8.6651,-2.87465 0.34081,-0.21063 0.43738,-16.97665 0.0989,-17.16514 -0.10914,-0.0608 -4.00843,1.12112 -8.6651,2.62642 -4.65667,1.50529 -8.4972,2.73862 -8.53453,2.74071 -0.0373,0.003 -0.0373,-8.64955 0,-19.22587 l 0.0679,-19.22968 10.31875,-3.47877 c 5.67532,-1.9133 11.30102,-3.72382 12.50157,-4.02333 l 2.18281,-0.54457 V 444.4596 c 0,105.052 0.32541,211.04708 0.65074,211.38027 0.12896,0.13208 188.33263,-5.21565 188.47236,-5.35535 0.19024,-0.19026 -0.49395,-68.01337 -0.70088,-69.47604 l -0.17013,-1.20259 -40.54977,4.08855 c -22.30239,2.24873 -40.60534,4.03302 -40.67321,3.96516 -0.0679,-0.0679 0.0504,-11.66548 0.26281,-25.77243 0.21244,-14.10698 0.38812,-27.73934 0.3904,-30.29413 l 0.004,-4.64514 40.28281,-6.42508 c 22.15555,-3.53381 40.55819,-6.4887 40.89477,-6.56641 l 0.61195,-0.14129 -0.0828,-34.73788 c -0.0455,-19.10586 -0.17065,-34.82571 -0.27802,-34.93305 -0.15648,-0.1564 -78.32706,16.31524 -79.51049,16.754 -0.26324,0.0976 -0.33073,-5.39054 -0.33073,-26.88818 v -27.01076 l 0.59531,-0.14618 c 0.32742,-0.0804 18.24567,-4.28889 39.81831,-9.35217 21.57264,-5.06331 39.26816,-9.25627 39.32335,-9.31773 0.24773,-0.27577 -0.24503,-78.69061 -0.49426,-78.65259 -0.23845,0.0364 -78.12294,23.24042 -78.91198,23.51017 -0.26313,0.09 -0.33073,-5.31027 -0.33073,-26.42318 v -26.53622 l 39.68744,-12.28307 39.68745,-12.28307 -0.031,-17.99167 c -0.0172,-9.89542 -0.10634,-19.13446 -0.19839,-20.53119 l -0.16735,-2.5395 -58.7375,22.05392 c -32.30562,12.12967 -76.47781,28.7133 -98.16041,36.85249 -21.6826,8.1392 -65.76298,24.68825 -97.95639,36.77569 -32.19342,12.08741 -58.59762,21.97714 -58.67599,21.97714 -0.0784,0 -0.11065,-2.93016 -0.0717,-6.51148 l 0.0708,-6.51148 160.07056,-59.63232 160.07058,-59.6323 61.38566,20.08796 c 98.438913,32.21337 220.467437,72.12828 222.979947,72.93561 1.90532,0.61224 2.31638,0.83962 2.32223,1.28468 0.006,0.45995 0.12364,0.40235 0.78663,-0.38526 l 0.77951,-0.92604 0.007,14.11774 0.007,14.11775 0.72761,-0.18082 c 4.82787,-1.19978 56.199453,-15.05199 56.686973,-15.28548 0.3638,-0.17423 0.75076,-0.36031 0.8599,-0.41347 0.10914,-0.0532 0.19844,73.70427 0.19844,163.90547 V 633.2848 l -4.82865,3.61442 -4.82865,3.61439 -0.13229,-160.64921 c -0.13213,-160.46038 -0.13292,-160.64911 -0.66146,-160.57318 -0.29104,0.0418 -3.98197,1.00124 -8.20208,2.13207 l -7.67291,2.0561 -0.0749,155.4273 -0.0749,155.42729 -4.88606,3.50364 -4.88606,3.50364 V 483.93187 c 0,-86.57517 -0.0995,-157.47089 -0.22109,-157.54603 -0.1216,-0.0752 -4.19949,0.93422 -9.06197,2.24309 -4.86249,1.30884 -9.763633,2.62649 -10.891423,2.92811 l -2.05052,0.54843 -0.006,153.62781 -0.006,153.62778 -4.95549,3.86356 -4.95549,3.86357 -0.13108,-170.78561 -0.13229,-170.78564 -135.334369,-45.59573 c -74.433908,-25.07769 -135.483198,-45.5997 -135.665098,-45.60454 -0.26183,-0.007 -0.33073,4.28733 -0.33073,20.61313 0,11.34203 0.0981,20.68254 0.21804,20.75665 0.11991,0.0741 16.99702,4.60838 37.50469,10.07612 20.50764,5.46778 37.495,10.0061 37.74966,10.08515 0.43694,0.13568 0.46302,1.63399 0.46302,26.58428 0,19.6256 -0.0778,26.4405 -0.30183,26.4405 -0.166,0 -17.13715,-4.10765 -37.71363,-9.12812 -20.57651,-5.02047 -37.52617,-9.12813 -37.6659,-9.12813 -0.16121,0 -0.25405,14.21831 -0.25405,38.90206 0,30.88233 0.0682,38.92638 0.33073,39.02004 0.30041,0.10716 67.39739,12.05558 73.15729,13.02761 l 2.44739,0.41301 V 429.827 c 0,26.38553 -0.0243,27.84253 -0.46302,27.74313 -0.68492,-0.1552 -75.11772,-13.33929 -75.30904,-13.33929 -0.0899,0 -0.16335,15.48186 -0.16335,34.40415 0,27.28698 0.0684,34.42737 0.33073,34.51653 0.28744,0.0977 80.01862,10.18974 80.50289,10.18974 0.23497,0 0.0554,63.13255 -0.18021,63.36817 -0.0973,0.0972 -17.8971,-1.56007 -39.55521,-3.68287 -21.65812,-2.12281 -39.52724,-3.85935 -39.70914,-3.85892 -0.2581,0 -0.32776,1.90328 -0.31721,8.66582 0.0109,6.95981 0.68633,63.34292 0.76034,63.46727 0.0109,0.0185 27.73169,0.10766 61.60166,0.19836 33.869973,0.0907 71.404426,0.22447 83.409894,0.29728 53.139814,0.32224 419.895356,1.27733 420.078706,1.09395 0.11219,-0.11216 0.35968,-15.93702 0.54999,-35.1663 0.19035,-19.22931 0.37365,-34.98996 0.40736,-35.02367 0.11332,-0.11334 43.28128,3.76172 43.41696,3.8974 0.0738,0.0738 0.0496,14.99356 -0.0537,33.15507 -0.10329,18.16153 -0.12377,33.1244 -0.0455,33.25088 0.0794,0.12827 25.0512,0.29281 56.48854,0.37224 30.99043,0.0783 61.65689,0.20455 68.1477,0.28061 l 11.80147,0.1383 0.19476,-25.60545 c 0.1071,-14.08298 0.21378,-25.6204 0.23707,-25.63868 0.10789,-0.0848 23.86533,2.07227 23.96939,2.17633 0.0651,0.0651 0.30404,11.05937 0.53102,24.43181 0.22702,13.37244 0.47588,24.37662 0.55309,24.45377 0.0772,0.0772 47.99986,0.2698 106.49479,0.42815 58.49493,0.15833 109.12506,0.35661 112.51136,0.44061 l 6.15696,0.15277 -0.0716,5.32802 -0.0715,5.32805 -176.08021,0.16015 c -96.84411,0.0881 -282.70066,0.25252 -413.01457,0.36542 -130.313903,0.11287 -277.05843,0.28903 -326.09895,0.39145 l -89.16458,0.18621 -332.71353,11.80648 c -182.99451,6.49362 -333.63833,11.84222 -334.76612,11.88583 l -2.05052,0.0793 z m 68.2522,-257.83198 c -0.31176,-1.08704 -0.51887,-1.26984 -0.51887,-0.45796 0,0.52731 0.41093,1.28764 0.69591,1.28764 0.0335,0 -0.0462,-0.37335 -0.17704,-0.82968 z m 210.38217,-46.27853 -0.25916,-0.64908 -0.0167,0.70596 c -0.009,0.38828 0.0714,0.92406 0.17928,1.19063 0.18196,0.44984 0.20178,0.44574 0.27594,-0.0569 0.0439,-0.29787 -0.0367,-0.83365 -0.17928,-1.19062 z M 732.06488,640.91295 c -5.65777,-1.04045 -9.95783,-2.59223 -23.12463,-8.34501 -8.06141,-3.52219 -13.41483,-5.56149 -16.55112,-6.30497 -1.13168,-0.26829 -2.87478,-1.29839 -8.06979,-4.76893 -18.34814,-12.25754 -35.5464,-25.6734 -51.86146,-40.45567 -5.92896,-5.37194 -21.97846,-21.42077 -27.27108,-27.26997 -21.83656,-24.13294 -39.2861,-48.53575 -54.48773,-76.2 -2.69774,-4.90945 -10.13793,-19.78745 -12.06627,-24.12871 l -0.90437,-2.03599 -1.71979,-0.52695 C 535.06275,450.58693 451.00463,425.92829 349.21281,396.0798 247.42099,366.23127 163.69029,341.67802 163.14458,341.51699 l -0.99218,-0.29278 v -5.41293 c 0,-5.02764 0.033,-5.40382 0.46302,-5.28474 0.25466,0.0705 11.05958,3.23837 24.01093,7.03964 166.34121,48.82195 345.54818,101.32659 345.61525,101.25952 0.0467,-0.0467 -0.40923,-1.32022 -1.01324,-2.82999 -12.59131,-31.47285 -21.02919,-66.63836 -24.30727,-101.30232 -1.13369,-11.98798 -1.38073,-17.36992 -1.52654,-33.25532 l -0.14375,-15.66056 -9.95495,-8.80925 c -21.21561,-18.77399 -40.40386,-36.07872 -53.47189,-48.22312 -35.62644,-33.10848 -64.52449,-62.83844 -86.75201,-89.24939 -2.23451,-2.65506 -4.15739,-4.82737 -4.27312,-4.82737 -0.11571,0 -2.39514,1.02576 -5.0654,2.27946 -34.13548,16.02693 -62.61878,27.71143 -88.59562,36.34396 -53.46372,17.76688 -100.03861,23.71681 -141.76176,18.10994 -21.288433,-2.86078 -41.621443,-8.93043 -60.379903,-18.02411 -2.25557,-1.09347 -4.91419,-2.32986 -5.90801,-2.74756 -3.89594,-1.6374 -7.22569,-4.51258 -9.864066,-8.51736 -0.66593,-1.01082 -2.405116,-4.11671 -3.864875,-6.902 -1.459759,-2.78532 -3.309382,-6.07624 -4.110302,-7.31317 -1.76522,-2.72624 -4.640077,-5.60146 -6.952853,-6.95375 l -1.711351,-1.00063 -3.042708,0.15473 c -1.67349,0.0851 -112.869924,3.96039 -247.103172,8.61179 -134.23326,4.6514 -244.07796,8.48487 -244.09937,8.51885 -0.0214,0.034 -0.36441,1.01422 -0.76232,2.17839 -0.3979,1.16417 -1.36011,3.42635 -2.13825,5.02708 -6.42967,13.22666 -18.31036,22.10102 -33.34375,24.90629 -4.03838,0.75356 -13.49827,0.68728 -17.3302,-0.12144 -6.0738,-1.28188 -12.54062,-4.02431 -17.04727,-7.2294 -11.17666,-7.94866 -17.62595,-21.90731 -17.01458,-36.82569 0.0785,-1.91616 0.34364,-4.43642 0.58917,-5.60059 3.89628,-18.47498 20.16713,-33.77049 38.72079,-36.39974 2.8525,-0.40423 10.08288,-0.16835 12.74355,0.41574 12.63825,2.7745 23.62729,11.89715 31.87216,26.459 0.41196,0.7276 0.77989,1.36128 0.81759,1.40816 0.14428,0.17934 26.48498,0.0265 38.48317,-0.22344 44.84346,-0.93382 73.84346,-2.19077 170.78853,-7.40243 29.68625,-1.59591 59.92813,-3.19982 67.20417,-3.56426 89.16434,-4.46606 148.337447,-5.38014 203.6589634,-3.14605 6.2187656,0.25114 11.3615776,0.4019 11.4284646,0.33501 0.06689,-0.0669 0.800894,-7.50017 1.631156,-16.51846 0.830289,-9.018273 1.581044,-16.479973 1.66841,-16.581547 0.08737,-0.1016 2.167546,0.339805 4.622614,0.98089 25.938529,6.773069 55.158689,9.125506 85.229962,6.861678 45.41388,-3.41884 94.06607,-17.120924 142.74271,-40.201111 7.68982,-3.646144 19.84375,-9.890549 19.84375,-10.195243 0,-0.447067 -32.29052,-36.4633703 -50.1532,-55.939985 C 158.29774,-84.255429 105.37102,-134.36523 54.395407,-173.3961 c -73.426076,-56.22074 -145.250448,-91.49627 -219.797167,-107.95033 -10.03321,-2.21454 -14.8949,-3.02456 -20.90208,-3.48254 -8.2245,-0.62702 -19.39288,-1.92622 -37.30625,-4.33979 -32.74478,-4.41188 -42.29238,-5.50083 -55.94821,-6.38113 -12.22438,-0.78804 -29.37751,-0.77168 -39.51597,0.0377 l -4.05061,0.32336 -10.64879,13.51454 C -454.25783,-128.766 -533.685,-19.824837 -604.42707,89.549951 l -1.80137,2.78511 h -15.54916 -15.54916 l 0.10109,-0.859896 c 2.47519,-21.054484 9.95252,-40.359967 28.05319,-72.429692 2.09443,-3.710781 6.08833,-10.7950003 8.87532,-15.7427093 4.98946,-8.857695 5.22417,-9.215226 15.28408,-23.2833347 5.61922,-7.858125 16.92341,-23.752968 25.12041,-35.321878 56.04796,-79.103861 79.15259,-110.749821 107.78974,-147.637511 62.86021,-80.9706 120.57404,-141.70502 179.50182,-188.8964 2.98945,-2.39406 5.48074,-4.20771 5.60557,-4.08087 0.44746,0.45463 0.85603,5.01476 0.70789,7.90122 -0.42656,8.31197 -3.95718,16.97832 -11.73493,28.8047 -1.51863,2.30914 -5.58927,8.08367 -9.04584,12.83229 -7.78801,10.69905 -10.43244,14.51341 -10.16833,14.66691 0.11263,0.0655 2.22885,0.19923 4.7027,0.29725 5.44216,0.21563 18.60246,1.06135 25.13542,1.61528 79.57775,6.7474 156.49754,27.76497 232.833321,63.61937 7.856009,3.68991 26.4151534,12.98366 33.86666639,16.95919 68.49024961,36.54097 133.96716261,83.66915 199.75745261,143.77899 34.97357,31.953951 73.01759,70.930811 107.11746,109.7440987 3.03299,3.452204 5.6071,6.2767373 5.72026,6.2767373 0.39111,0 10.24596,-8.6692053 17.72973,-15.5966593 5.69256,-5.2693887 20.75175,-20.2663167 26.58203,-26.4720927 29.16433,-31.042693 56.80805,-66.596373 90.92197,-116.938314 0.93397,-1.37831 1.77667,-2.61801 1.87261,-2.75489 0.10192,-0.14545 0.73734,-0.007 1.52905,0.33388 0.74507,0.32051 2.09984,0.65234 3.01062,0.73739 2.7818,0.25976 5.29971,-0.55976 11.81708,-3.84621 3.13161,-1.57914 6.33482,-3.08108 7.11825,-3.33765 2.03099,-0.66513 4.39287,-0.89658 6.36585,-0.62381 1.87796,0.25963 4.93178,1.62181 6.27393,2.79852 0.93808,0.82247 13.77807,18.87851 19.05338,26.79358 17.79844,26.70474 25.22588,46.935551 24.61559,67.048011 -0.32951,10.85993 -2.91674,20.41104 -8.27175,30.536385 -0.79449,1.502198 -1.93386,3.883449 -2.53195,5.291667 -6.23718,14.685514 -16.8746,30.5457767 -30.90865,46.084361 -11.23495,12.439386 -22.48908,23.068255 -47.91374,45.251663 -24.29851,21.200806 -35.68126,31.684921 -43.48358,40.050623 l -2.79564,2.99749 2.3568,3.74126 c 7.74512,12.2949 18.02662,25.77905 29.78277,39.05999 13.07285,14.76841 26.21148,27.81618 56.48359,56.093 17.81852,16.64406 22.99272,21.53531 28.23877,26.69452 2.21617,2.17951 4.07985,3.91063 4.14152,3.84699 0.0617,-0.0637 0.48453,-2.6756 0.93972,-5.80429 6.02848,-41.43659 17.00472,-80.96566 31.8485,-114.69689 5.52829,-12.56255 8.54277,-18.504532 12.06445,-23.780773 3.5493,-5.317649 10.00974,-15.260374 21.76814,-33.501518 18.92229,-29.354676 24.69729,-38.097171 33.38208,-50.535419 19.49011,-27.913517 36.18458,-48.281089 54.50398,-66.495879 4.74181,-4.71472 5.34475,-5.22828 5.96527,-5.0809 1.61632,0.38388 9.96672,4.76602 13.25798,6.95753 11.70276,7.79243 20.57318,18.58312 28.43374,34.589038 3.75272,7.641379 6.64083,14.6524937 10.19067,24.7385437 l 1.25711,3.571875 -2.49071,5.8208343 c -4.47646,10.46144 -9.01414,20.591172 -18.01542,40.216669 -20.07053,43.759757 -25.07306,55.093789 -32.31687,73.219159 -14.67197,36.71197 -23.47659,68.7565 -27.38993,99.68606 -1.67397,13.23041 -1.80369,16.6297 -1.0854,28.44271 1.77919,29.2613 5.21059,54.64818 10.88966,80.56563 0.98505,4.49548 4.38486,18.34917 5.40338,22.01799 0.23479,0.84566 0.70765,1.29336 3.37187,3.19228 20.08389,14.31486 41.74244,25.55674 71.19369,36.95316 11.0885,4.29078 18.69935,6.93799 51.76133,18.0036 14.69761,4.91919 29.40183,9.89561 32.67604,11.05869 19.03111,6.76037 33.18082,12.54059 47.95573,19.59015 l 3.90261,1.86205 v 2.66312 2.66313 h -11.32727 -11.32726 l -6.06909,-1.06651 c -57.48274,-10.10131 -111.44265,-24.84212 -161.7986,-44.20026 -2.9954,-1.15149 -5.58729,-2.09365 -5.75974,-2.09365 -0.18624,0 -0.26215,0.24167 -0.18698,0.59532 0.0696,0.32742 0.31824,1.905 0.55252,3.50573 1.43286,9.78966 5.00542,22.26019 10.06163,35.12153 2.80062,7.1238 4.55152,11.2595 10.50213,24.80659 10.54365,24.00348 14.38701,34.18433 17.52947,46.43438 0.6346,2.47386 1.35054,5.4909 1.59099,6.70452 0.43358,2.1885 0.45945,2.23435 3.15429,5.59051 21.85823,27.22211 33.2641,60.13567 35.21127,101.6081 l 0.15529,3.3073 -2.06463,1.53368 c -2.57566,1.91328 -6.17775,3.70398 -8.94381,4.44622 -2.84676,0.76385 -9.29889,0.93556 -12.56771,0.33443 z M 488.2849,625.84816 c -26.46635,-1.50477 -48.19526,-2.81051 -48.28646,-2.90164 -0.20511,-0.20492 -0.70009,-33.67479 -0.50096,-33.87389 0.079,-0.079 22.40375,2.24414 49.61056,5.16253 27.20681,2.91838 49.66343,5.30616 49.90356,5.30616 0.40048,0 0.43662,1.2046 0.43662,14.55209 v 14.55208 l -1.52135,-0.0307 c -0.83675,-0.0169 -23.17565,-1.26188 -49.64197,-2.76664 z M -679.75175,606.57061 c 0,-13.23289 0.0296,-14.14661 0.46303,-14.28149 0.91363,-0.28435 17.92987,-4.65286 18.12616,-4.65344 0.11035,0 0.16988,6.69401 0.13229,14.87633 l -0.0684,14.87697 -8.86354,1.64721 c -4.87495,0.90596 -9.0719,1.65275 -9.32656,1.6595 -0.43535,0.0116 -0.46303,-0.83262 -0.46303,-14.12508 z m 994.83331,10.28888 c -22.33745,-0.76898 -40.64331,-1.4083 -40.67969,-1.42068 -0.0364,-0.0124 -0.0661,-9.84618 -0.0661,-21.85292 v -21.83045 l 1.38906,0.16126 c 0.76398,0.0887 20.66867,2.26679 44.23259,4.84021 32.22292,3.51909 42.87271,4.76644 42.96116,5.0318 0.0647,0.19401 0.0291,8.49447 -0.0791,18.4454 l -0.19664,18.09263 -3.47387,-0.0345 c -1.91061,-0.019 -21.74994,-0.66371 -44.08739,-1.43272 z M 186.22948,611.9602 c -12.73307,-0.55282 -23.3594,-1.01338 -23.61406,-1.02346 -0.43762,-0.0175 -0.46302,-1.412 -0.46302,-25.43455 v -25.4162 l 1.12448,0.15253 c 1.18779,0.16113 49.19575,5.17155 49.55177,5.17155 0.19611,0 0.071,14.85715 -0.31578,37.50469 l -0.17285,10.12031 -1.47974,-0.0349 c -0.81388,-0.019 -11.89773,-0.48718 -24.6308,-1.04 z m -557.47707,-39.71983 v -28.9305 l 29.4349,-5.44055 29.43489,-5.44057 0.16849,4.51826 c 0.22225,5.95935 0.8659,55.16582 0.72348,55.30824 -0.0608,0.0608 -13.20464,2.02343 -29.20855,4.36142 -16.0039,2.33796 -29.42542,4.31911 -29.8256,4.40254 l -0.72761,0.15165 z m 426.706757,27.21218 -12.10469,-0.81031 v -28.39003 c 0,-15.61455 0.0893,-28.38961 0.19844,-28.38905 0.10914,0 6.13291,0.65542 13.38614,1.45521 7.25321,0.7998 13.2361,1.4542 13.29532,1.4542 0.0592,0 0.1076,12.50156 0.1076,27.78125 v 27.78125 l -1.38906,-0.0361 c -0.76398,-0.0198 -6.83617,-0.40074 -13.49375,-0.84641 z m -64.7567676,-4.77356 -31.8822914,-2.15183 -0.06726,-30.22237 -0.06728,-30.22241 1.125617,0.15095 c 0.619072,0.083 15.770277,1.78215 33.6693394,3.77589 l 32.5437486,3.62495 0.06734,28.63067 0.06731,28.63065 -1.787101,-0.0323 c -0.982927,-0.0177 -16.1341586,-1.00066 -33.6694186,-2.18417 z m -65.4843734,-6.26718 c -7.858125,-0.55658 -14.472602,-1.01857 -14.698847,-1.02664 -0.370285,-0.0132 -0.400262,-3.12301 -0.300514,-31.16937 0.06093,-17.13508 0.136128,-31.18369 0.167111,-31.21914 0.03096,-0.0355 6.77418,0.68106 14.984888,1.59223 l 14.928612,1.65669 0.09163,1.18589 c 0.05038,0.65225 0.0061,14.43159 -0.09848,30.62079 -0.139435,21.58891 -0.269637,29.42645 -0.4885,29.4032 -0.164121,-0.0175 -6.727772,-0.48707 -14.585897,-1.04365 z M -679.6878,561.396 l 0.0684,-14.86197 9.26041,-2.06393 c 5.09323,-1.13517 9.29018,-2.06727 9.32656,-2.07137 0.0364,-0.004 0.0661,6.70671 0.0661,14.91287 v 14.92028 l -0.61241,0.15369 c -1.86526,0.46816 -17.54145,3.87242 -17.83196,3.87242 -0.28092,0 -0.33268,-2.77617 -0.2771,-14.86199 z M 433.76845,546.92694 c -102.62581,-13.7169 -165.64511,-22.24678 -165.70583,-22.42892 -0.13124,-0.3937 1.22306,-43.81984 1.3712,-43.96798 0.0638,-0.0639 2.35373,0.31213 5.08868,0.8355 2.73492,0.52335 71.52854,13.63453 152.87468,29.13594 81.34614,15.50141 148.30025,28.27404 148.7869,28.38363 0.81746,0.1841 0.92998,0.34023 1.47812,2.05119 1.18946,3.7126 3.83328,8.10881 7.16021,11.90606 0.76496,0.87313 3.63818,3.91491 6.3849,6.75955 4.86799,5.04148 8.91997,9.70018 8.25079,9.48619 -0.0449,-0.0143 -74.6053,-9.98691 -165.68965,-22.16116 z m -1113.5202,-28.65091 v -13.85824 l 9.06198,-3.01189 c 4.98409,-1.65653 9.21081,-3.06694 9.39271,-3.13425 0.26212,-0.097 0.33073,2.97341 0.33073,14.80095 v 14.92329 l -8.79739,1.95107 c -4.83857,1.0731 -9.06529,2.00424 -9.39271,2.0692 l -0.59532,0.11811 z M 195.3576,514.735 c -8.58572,-1.20713 -18.40838,-2.59553 -21.82812,-3.08536 l -6.21771,-0.89061 -0.0675,-25.41101 -0.0674,-25.41103 22.63836,4.55345 c 12.4511,2.50439 22.67476,4.59624 22.71929,4.64852 0.0694,0.0815 -0.54128,47.60378 -0.61407,47.78621 -0.0494,0.12393 -0.95909,0.004 -16.56284,-2.19017 z m 216.95833,-42.56617 -144.19791,-33.1362 -0.0647,-2.62639 c -0.086,-3.48938 1.11913,-41.3398 1.3227,-41.5434 0.0874,-0.0874 22.04529,6.0978 48.79528,13.74492 107.22033,30.6514 222.73127,63.71374 222.74722,63.75623 0.009,0.0249 0.40579,1.64357 0.88107,3.59735 2.54288,10.45332 6.04117,17.14688 15.1866,29.05758 0.17513,0.22807 0.14124,0.3238 -0.10919,0.30843 -0.19971,-0.0122 -65.25218,-14.93362 -144.56103,-33.15852 z m -1092.00373,5.62049 0.0684,-14.86032 9.32656,-3.11023 9.32656,-3.1102 v 14.9058 14.90581 l -9.19432,3.06472 c -5.05688,1.68561 -9.28459,3.06475 -9.39491,3.06475 -0.11033,0 -0.16984,-6.68716 -0.13224,-14.86033 z m 736.271447,11.53724 c -8.36745,-1.5077 -15.30284,-2.74603 -15.41198,-2.75182 -0.10914,-0.006 -0.19844,-12.51207 -0.19844,-27.79176 0,-15.27969 0.0893,-27.78509 0.19844,-27.78977 0.10914,-0.005 7.13383,1.21526 15.61042,2.71095 l 15.41198,2.71946 v 27.84843 c 0,15.31665 -0.0893,27.83661 -0.19844,27.82213 -0.10914,-0.0145 -7.04453,-1.25989 -15.41198,-2.76762 z m -66.5427056,-12.52514 -35.1895834,-6.27517 -0.06736,-27.85335 -0.06736,-27.85333 0.728821,0.15198 c 0.400844,0.0836 16.206946,2.8925 35.1246534,6.24202 18.917708,3.34955 34.6637226,6.15051 34.9911446,6.22438 l 0.595313,0.13428 v 27.77622 c 0,26.28628 -0.02487,27.7749 -0.463021,27.75217 -0.254662,-0.0132 -16.2983326,-2.84784 -35.6526026,-6.2992 z M -366.74642,475.40715 c -1.11371,-0.13086 -2.36815,-0.52586 -3.57187,-1.12475 -5.87523,-2.92295 -10.13389,-9.43565 -12.09212,-18.49228 -0.84638,-3.91446 -0.84638,-12.06024 0,-15.9747 1.97432,-9.13106 6.42503,-15.88082 12.26021,-18.59325 8.3744,-3.89281 17.5169,2.07082 21.49739,14.02268 1.46871,4.40992 1.85799,7.07774 1.85177,12.69021 -0.005,4.22781 -0.0974,5.32744 -0.68043,8.06979 -2.02639,9.53143 -7.2984,16.8882 -13.52928,18.87927 -2.02645,0.64757 -3.51819,0.78359 -5.73567,0.52303 z m 32.5405,-31.75432 v -26.54929 l 14.48594,-3.28256 c 7.96726,-1.80541 14.7544,-3.33576 15.08251,-3.40074 l 0.59659,-0.11819 -0.0674,26.53604 -0.0674,26.53605 -14.2875,3.24572 c -7.85813,1.78514 -14.61493,3.32145 -15.01511,3.414 l -0.7276,0.16825 z m 263.392696,21.62475 c -4.220104,-0.76566 -10.560182,-1.90553 -14.089062,-2.53305 l -6.416146,-1.14093 v -27.81933 -27.8193 l 14.353645,2.5444 14.353646,2.54441 0.06736,27.83335 c 0.05371,22.19108 5.3e-5,27.82819 -0.264583,27.80795 -0.182563,-0.014 -3.784759,-0.65185 -8.004863,-1.4175 z M -679.75175,436.25265 v -14.91404 l 9.06198,-3.01188 c 4.98409,-1.65653 9.21081,-3.06694 9.39271,-3.13425 0.26212,-0.097 0.33073,2.97156 0.33073,14.79166 v 14.91403 l -9.06198,3.01189 c -4.98409,1.65653 -9.21081,3.06694 -9.39271,3.13425 -0.26212,0.097 -0.33073,-2.97156 -0.33073,-14.79166 z m 874.97706,-13.59207 c -8.51297,-1.9368 -18.27609,-4.16084 -21.69583,-4.94231 l -6.21771,-1.42089 -0.0675,-25.4257 -0.0675,-25.42569 10.7831,3.10896 c 5.93071,1.70992 16.12881,4.63516 22.66249,6.50052 l 11.87936,3.39159 -0.1728,14.9664 c -0.095,8.2315 -0.24942,18.98475 -0.34308,23.89608 -0.16886,8.85547 -0.17489,8.92945 -0.72636,8.90109 -0.30586,-0.0159 -7.52126,-1.61327 -16.03423,-3.55005 z m -905.60718,-27.64457 0.0707,-6.67713 48.61455,-17.01448 c 26.73801,-9.358 48.85387,-17.09047 49.14636,-17.18329 0.52298,-0.166 0.5318,-0.0593 0.5318,6.4353 0,5.98612 -0.0423,6.62036 -0.45234,6.7777 -0.24878,0.0955 -22.19086,7.7819 -48.76016,17.08095 -26.56931,9.29904 -48.51345,16.98628 -48.76477,17.08272 -0.42656,0.16369 -0.45224,-0.26869 -0.38619,-6.50177 z M 56.385817,378.38536 40.974447,374.2486 v -27.82763 -27.82766 l 3.24115,0.86378 c 1.78263,0.47509 8.80628,2.34143 15.60811,4.14743 l 12.36694,3.28366 0.003,27.8474 c 0,15.31607 -0.087,27.83369 -0.19614,27.81697 -0.10914,-0.0167 -7.13356,-1.89198 -15.6098,-4.16719 z M -7.9746836,360.48881 c -18.6994274,-4.99906 -34.7430984,-9.28944 -35.6526034,-9.53418 l -1.653646,-0.445 v -27.75186 c 0,-15.26355 0.0893,-27.75569 0.198437,-27.76032 0.109141,-0.005 16.182578,4.2496 35.7187494,9.45388 l 35.5203116,9.46229 v 27.8524 c 0,15.31879 -0.02977,27.8433 -0.06615,27.83218 -0.03638,-0.0111 -15.365677,-4.11033 -34.0651026,-9.10939 z m -359.3384964,1.4809 c -5.41023,-1.73056 -10.19768,-7.35849 -12.62459,-14.8409 -1.51337,-4.6658 -1.76218,-6.45518 -1.74758,-12.56771 0.0119,-5.02592 0.0787,-5.83446 0.69916,-8.47093 1.51802,-6.45073 3.71383,-10.75785 7.35735,-14.43157 4.67281,-4.71151 9.9727,-5.91489 15.22519,-3.45694 6.34515,2.96926 10.82802,10.23073 12.59787,20.40631 0.57917,3.32994 0.435,10.1722 -0.28993,13.75834 -2.48119,12.27439 -9.42258,20.15236 -17.70526,20.0941 -1.18168,-0.008 -2.642,-0.21233 -3.51221,-0.4907 z m 32.22725,-40.01122 c -0.0955,-13.71084 -0.1379,-24.96455 -0.0942,-25.00826 0.0437,-0.0437 6.68038,-2.39482 14.74819,-5.22473 8.0678,-2.82993 14.87709,-5.22679 15.13176,-5.32638 0.43902,-0.17171 0.46302,1.14774 0.46302,25.46914 v 25.65024 l -14.75052,4.58817 c -8.11279,2.52349 -14.87969,4.63148 -15.03757,4.6844 -0.20415,0.0684 -0.33716,-7.10105 -0.46067,-24.83258 z m 258.121143,19.41653 -14.353645,-3.86152 v -27.73608 c 0,-15.25487 0.0893,-27.74157 0.198438,-27.74821 0.10914,-0.007 6.598046,1.68714 14.419791,3.76394 l 14.221354,3.77602 v 27.85378 c 0,15.31959 -0.02977,27.84472 -0.06615,27.83366 -0.03638,-0.0111 -6.525286,-1.75778 -14.419792,-3.88159 z M 313.22948,-111.30431 c -23.52736,-1.24278 -43.45398,-7.39696 -59.97673,-18.52335 -13.22049,-8.90266 -26.99192,-24.10161 -35.67946,-39.37794 -9.43777,-16.59555 -13.99741,-34.9943 -12.83613,-51.79532 0.19352,-2.79955 0.36492,-5.43278 0.38092,-5.85161 0.0259,-0.68114 -0.0965,-0.79937 -1.16152,-1.12032 -4.40983,-1.32899 -10.92435,-2.22645 -21.82812,-3.00713 -16.98948,-1.21638 -23.32104,-2.15469 -29.89792,-4.43073 -6.48134,-2.24298 -11.84624,-6.01442 -14.92871,-10.49465 -1.20367,-1.74947 -2.40528,-3.86569 -2.19621,-3.86787 0.10539,-10e-4 0.90596,-0.11658 1.77909,-0.25662 4.23677,-0.67955 8.49598,-0.85918 25.13542,-1.06006 9.89541,-0.11947 19.24182,-0.35142 20.76979,-0.51547 3.70797,-0.39809 7.75107,-1.07377 8.03383,-1.34262 0.12576,-0.11956 0.50922,-2.0433 0.85214,-4.27499 6.45261,-41.99185 34.14607,-79.34247 70.8859,-95.60498 35.71187,-15.80749 78.35577,-17.82438 116.15208,-5.49353 29.30176,9.55954 54.04178,27.34225 70.32529,50.54859 4.82481,6.87605 6.12307,9.1925 8.27059,14.75712 4.16716,10.79786 7.71633,22.61521 9.12193,30.37254 0.90469,4.99284 1.31448,9.36582 1.31448,14.02707 0,8.5134 -1.52403,14.92156 -4.88567,20.5431 -1.98882,3.32586 -1.75188,3.21337 -3.42852,1.62767 -1.58057,-1.49483 -2.5881,-2.0047 -3.5061,-1.77429 -0.64423,0.16169 -0.69604,0.30416 -1.68785,4.64222 -0.78103,3.41604 -2.91119,11.34236 -4.08858,15.21354 -12.31652,40.49583 -32.73441,68.3575 -60.05849,81.95409 -11.60171,5.77305 -29.441,10.98746 -45.92563,13.424 -10.02911,1.48236 -22.19127,2.14345 -30.93582,1.68154 z m 119.68426,-149.38098 c 0.22633,-16.85063 -0.0816,-21.20159 -1.95818,-27.66773 -1.17128,-4.03591 -3.56322,-8.53755 -7.57012,-14.24697 -3.14675,-4.48381 -5.9917,-7.77867 -10.59895,-12.27512 -7.87564,-7.68627 -15.66423,-13.06222 -26.62028,-18.37426 -14.39852,-6.98111 -30.11167,-11.04284 -47.66903,-12.32207 -5.37371,-0.39153 -18.8106,-0.16768 -23.6802,0.39449 -12.28995,1.41882 -23.28357,4.10808 -33.3375,8.15501 -4.66974,1.87968 -17.95513,8.29677 -20.6375,9.96831 -22.22667,13.85064 -37.04939,37.26531 -46.31979,73.16887 -0.56181,2.17595 -0.98575,3.992 -0.9421,4.03568 0.0437,0.0437 22.63151,0.32521 50.19514,0.62562 27.56363,0.30041 74.64258,0.81948 104.61987,1.15348 29.97729,0.33401 56.71725,0.62365 59.42211,0.64364 l 4.91797,0.0364 z"
       id="path179" /></g></svg>
